<svg width="153" height="33" viewBox="0 0 153 33" fill="none" xmlns="http://www.w3.org/2000/svg">
<path d="M0 21.8601L10.8314 17.0393L17.0657 20.6549L18.3252 32.5165L10.6425 32.4531L11.776 24.207L10.4536 23.4459L3.96731 28.5204L0 21.8601Z" fill="#2C2C2C"/>
<path d="M17.7593 20.147L27.3312 27.1879L31.1096 20.4008L23.4269 17.2926V15.7703L31.1096 12.5987L27.3312 5.875L17.7593 12.9159V20.147Z" fill="#2C2C2C"/>
<path d="M17.0657 12.3452L18.3252 0.483521L10.6425 0.610381L11.776 8.85645L10.4536 9.61762L3.90434 4.54312L0 11.14L10.8314 15.9607L17.0657 12.3452Z" fill="#2C2C2C"/>
<path d="M56.7398 15.0784V26.1911H60.8744V12.029H54.8529V15.0784H56.7398Z" fill="#2C2C2C"/>
<path d="M56.6104 10.0391C56.9895 10.4353 57.5667 10.6334 58.342 10.6334C59.1173 10.6334 59.6858 10.4353 60.0474 10.0391C60.4266 9.62547 60.6159 9.1086 60.6159 8.48852C60.6159 7.85097 60.4266 7.3341 60.0474 6.93791C59.6858 6.52446 59.1173 6.31763 58.342 6.31763C57.5667 6.31763 56.9895 6.52446 56.6104 6.93791C56.2487 7.3341 56.0677 7.85097 56.0677 8.48852C56.0677 9.1086 56.2487 9.62547 56.6104 10.0391Z" fill="#2C2C2C"/>
<path d="M42.3453 25.8808C43.5168 26.415 44.9554 26.6822 46.6609 26.6822C48.2631 26.6822 49.6414 26.4323 50.7958 25.9327C51.9502 25.4331 52.8375 24.7352 53.4576 23.8394C54.0951 22.9261 54.4139 21.8666 54.4139 20.6605C54.4139 19.4891 54.1126 18.4984 53.5096 17.6885C52.9236 16.8616 52.1055 16.2156 51.0543 15.7505C50.0034 15.268 48.7887 14.9665 47.4104 14.846L45.9634 14.7168C45.1019 14.6477 44.4814 14.4152 44.1023 14.0189C43.7236 13.6227 43.5338 13.1574 43.5338 12.6235C43.5338 12.2098 43.6375 11.8309 43.8439 11.4863C44.0507 11.1245 44.3607 10.8402 44.7744 10.6334C45.2051 10.4268 45.7307 10.3234 46.3508 10.3234C47.0054 10.3234 47.5481 10.4438 47.9788 10.6852C48.0737 10.7362 48.1636 10.7907 48.2485 10.8486L48.2689 10.8629C48.3005 10.8848 48.3317 10.9074 48.3617 10.9303C48.6235 11.1303 48.832 11.3673 48.9868 11.6413C49.2107 12.0205 49.323 12.4424 49.323 12.9077H53.4576C53.4576 11.6671 53.1733 10.5903 52.6049 9.67728C52.0364 8.74696 51.2182 8.03199 50.1499 7.53219C49.0987 7.01532 47.8323 6.75688 46.3508 6.75688C44.938 6.75688 43.7149 6.99826 42.6811 7.48058C41.6474 7.94585 40.8375 8.61774 40.252 9.49625C39.6831 10.375 39.3989 11.4174 39.3989 12.6235C39.3989 14.2946 39.959 15.6383 41.0789 16.655C42.1988 17.6715 43.6978 18.2572 45.5755 18.4122L46.9971 18.5415C48.1511 18.6449 48.9868 18.8775 49.5036 19.2392C50.0205 19.5837 50.2789 20.0575 50.2789 20.6605C50.2789 20.9377 50.2336 21.1976 50.1429 21.4404C50.0754 21.6206 49.9831 21.7915 49.8657 21.9527C49.5898 22.3146 49.1849 22.5988 48.6509 22.8056C48.117 23.0123 47.4536 23.1157 46.6609 23.1157C45.7823 23.1157 45.0674 22.9952 44.516 22.7538C43.9646 22.4954 43.5513 22.1596 43.2754 21.7461C43.017 21.3324 42.888 20.8847 42.888 20.4021H38.7788C38.7788 21.6254 39.0801 22.7108 39.6831 23.6583C40.2861 24.5889 41.1738 25.3296 42.3453 25.8808Z" fill="#2C2C2C"/>
<path d="M70.1002 26.3719C68.6703 26.3719 67.5158 26.1996 66.6373 25.855C65.7584 25.4932 65.1125 24.8989 64.6989 24.072C64.3027 23.2276 64.1046 22.0907 64.1046 20.6605V15.0526H61.9597V12.029H64.1046V8.20428H67.9553V12.029H72.0903V15.0526H67.9553V20.8158C67.9553 21.4877 68.1276 22.0045 68.4722 22.3662C68.8338 22.7108 69.3419 22.883 69.997 22.883H72.0903V26.3719H70.1002Z" fill="#2C2C2C"/>
<path fill-rule="evenodd" clip-rule="evenodd" d="M77.0688 26.0619C77.9989 26.4753 79.0672 26.6822 80.2732 26.6822C81.4617 26.6822 82.513 26.4753 83.426 26.0619C84.3391 25.6484 85.0973 25.0712 85.7003 24.3304C86.3033 23.5895 86.7083 22.7453 86.9147 21.7977H83.116C82.9437 22.2284 82.6162 22.5903 82.1338 22.883C81.6515 23.176 81.031 23.3225 80.2732 23.3225C79.8038 23.3225 79.3839 23.267 79.0143 23.1558C78.733 23.0714 78.4808 22.9546 78.2573 22.8056C77.7404 22.4611 77.3613 21.9785 77.1204 21.3584C77.0534 21.1818 76.9959 20.997 76.9477 20.8045C76.8986 20.6096 76.859 20.4067 76.8291 20.1955H87.1731V18.7999C87.1731 17.5077 86.8976 16.319 86.3462 15.2336C85.7948 14.1308 84.9937 13.2436 83.9429 12.5717C82.9091 11.8825 81.634 11.5379 80.118 11.5379C78.9635 11.5379 77.9298 11.7448 77.0167 12.1582C76.1212 12.5544 75.3717 13.0971 74.7687 13.7862C74.1656 14.4754 73.7004 15.2594 73.3729 16.1381C73.0628 16.9994 72.908 17.9039 72.908 18.8515V19.3684C72.908 20.2816 73.0628 21.1774 73.3729 22.0561C73.7004 22.9176 74.1656 23.7014 74.7687 24.4079C75.3887 25.097 76.1553 25.6484 77.0688 26.0619ZM76.9002 17.6401C76.9119 17.5853 76.9239 17.5314 76.9373 17.4784C76.973 17.3323 77.0142 17.1923 77.0613 17.0585C77.0879 16.9823 77.1162 16.908 77.1462 16.8358C77.4046 16.1983 77.7837 15.716 78.2831 15.3886C78.47 15.2663 78.6722 15.1668 78.8899 15.0903C79.2553 14.9619 79.6648 14.8976 80.118 14.8976C80.8246 14.8976 81.4101 15.0613 81.8754 15.3886C82.3577 15.6987 82.7198 16.1552 82.9607 16.7582C82.9803 16.8069 82.999 16.8564 83.0169 16.9066C83.0452 16.9865 83.0719 17.0685 83.0964 17.1525C83.133 17.2776 83.1651 17.407 83.193 17.5408C83.2134 17.6394 83.2312 17.7404 83.2466 17.8438H76.8607C76.8728 17.7747 76.8861 17.7069 76.9002 17.6401Z" fill="#2C2C2C"/>
<path d="M88.8794 26.1911V12.029H92.1616V15.5959C92.2061 15.3839 92.2569 15.1804 92.3139 14.9852C92.3622 14.8208 92.4146 14.6622 92.4716 14.5099C92.8337 13.5451 93.3764 12.8216 94.0997 12.339C94.8234 11.8394 95.7106 11.5897 96.7618 11.5897H96.9424C98.0107 11.5897 98.898 11.8394 99.6046 12.339C100.328 12.8216 100.871 13.5451 101.233 14.5099L101.261 14.5828L101.285 14.6493C101.302 14.6023 101.319 14.5559 101.336 14.5099C101.715 13.5451 102.266 12.8216 102.99 12.339C103.713 11.8394 104.601 11.5897 105.652 11.5897H105.833C106.901 11.5897 107.797 11.8394 108.52 12.339C109.261 12.8216 109.821 13.5451 110.2 14.5099C110.579 15.4748 110.769 16.6808 110.769 18.128V26.1911H106.634V17.8954C106.634 17.1201 106.427 16.4913 106.013 16.0089C105.617 15.5264 105.049 15.2852 104.308 15.2852C103.567 15.2852 102.981 15.5351 102.551 16.0347C102.12 16.5171 101.904 17.1631 101.904 17.973V26.1911H97.7435V17.8954C97.7435 17.1201 97.5371 16.4913 97.1235 16.0089C96.7273 15.5264 96.1671 15.2852 95.4438 15.2852C94.6856 15.2852 94.0913 15.5351 93.6606 16.0347C93.2299 16.5171 93.0143 17.1631 93.0143 17.973V26.1911H88.8794Z" fill="#2C2C2C"/>
<path fill-rule="evenodd" clip-rule="evenodd" d="M121.814 23.4623V26.1911H125.096V17.5077C125.096 16.1983 124.838 15.1302 124.321 14.3031C123.804 13.4589 123.046 12.8301 122.047 12.4166C121.065 12.0032 119.85 11.7964 118.403 11.7964C118.089 11.7964 117.762 11.7997 117.42 11.8066C117.219 11.8107 117.012 11.8159 116.8 11.8222C116.232 11.8394 115.68 11.8652 115.146 11.8998L114.739 11.9272C114.529 11.9418 114.332 11.9562 114.147 11.9707C114.008 11.9816 113.876 11.9924 113.751 12.0032V15.4921C114.285 15.4575 114.879 15.423 115.534 15.3886C115.717 15.3791 115.899 15.3701 116.079 15.3618C116.339 15.3497 116.596 15.3393 116.85 15.3302C117.05 15.3229 117.249 15.3164 117.447 15.311C118.067 15.2938 118.566 15.2852 118.946 15.2852C119.703 15.2852 120.255 15.4661 120.599 15.8279C120.944 16.1898 121.116 16.7324 121.116 17.4561V17.5077H118.558C117.3 17.5077 116.189 17.6715 115.224 17.9988C114.259 18.3088 113.51 18.7999 112.976 19.4718C112.441 20.1266 112.175 20.9708 112.175 22.0045C112.175 22.9521 112.39 23.7705 112.821 24.4597C113.251 25.1316 113.846 25.6484 114.604 26.0101C115.379 26.3719 116.275 26.5529 117.291 26.5529C118.273 26.5529 119.1 26.3719 119.773 26.0101C120.462 25.6484 120.996 25.1316 121.375 24.4597C121.441 24.3465 121.504 24.2289 121.562 24.107C121.644 23.9343 121.717 23.7528 121.781 23.5626L121.814 23.4623ZM121.116 20.945V19.8078H118.532C117.808 19.8078 117.248 19.9887 116.852 20.3505C116.473 20.6951 116.283 21.1689 116.283 21.7719C116.283 22.0557 116.331 22.3137 116.425 22.5462C116.52 22.7792 116.663 22.9863 116.852 23.1675C117.248 23.5121 117.808 23.6844 118.532 23.6844C118.67 23.6844 118.803 23.6775 118.931 23.664C119.036 23.6529 119.138 23.6373 119.237 23.6172C119.427 23.5787 119.605 23.5235 119.773 23.4517C120.152 23.2794 120.462 22.9952 120.703 22.5988C120.944 22.2026 121.082 21.6512 121.116 20.945Z" fill="#2C2C2C"/>
<path d="M127.57 26.1911V12.029H130.853V16.7035C131.01 15.3691 131.406 14.2931 132.042 13.4762C132.903 12.3908 134.143 11.8482 135.763 11.8482H136.306V15.4144H135.272C134.135 15.4144 133.256 15.7245 132.636 16.3448C132.015 16.9478 131.705 17.8265 131.705 18.9807V26.1911H127.57Z" fill="#2C2C2C"/>
<path d="M141.549 19.5752H142.919L147.39 26.1911H152.041L146.373 18.066L151.034 12.029H146.692L141.549 18.7629V7.32556H137.414V26.1911H141.549V19.5752Z" fill="#2C2C2C"/>
</svg>
