<svg width="118" height="33" viewBox="0 0 118 33" fill="none" xmlns="http://www.w3.org/2000/svg">
<path d="M66.3991 24.8718V5.84021H69.8474V24.8718H66.3991Z" fill="#2C2C2C"/>
<path d="M37.2095 6.36667L44.501 24.8718H47.3439L54.7143 6.36667H50.8975L45.9654 19.3591L41.079 6.36667H37.2095Z" fill="#2C2C2C"/>
<path fill-rule="evenodd" clip-rule="evenodd" d="M55.2293 24.2664C56.2646 24.8455 57.4228 25.135 58.7039 25.135C59.985 25.135 61.1344 24.8455 62.1522 24.2664C63.1876 23.6697 64.0036 22.8712 64.6003 21.871C65.1969 20.8531 65.4952 19.7212 65.4952 18.4753C65.4952 17.2293 65.1969 16.115 64.6003 15.1323C64.0036 14.132 63.1876 13.3423 62.1522 12.7632C61.1344 12.1665 59.9762 11.8682 58.6776 11.8682C57.4141 11.8682 56.2646 12.1665 55.2293 12.7632C54.1939 13.3423 53.3779 14.132 52.7812 15.1323C52.1846 16.115 51.8862 17.2293 51.8862 18.4753C51.8862 19.7212 52.1846 20.8531 52.7812 21.871C53.3954 22.8712 54.2114 23.6697 55.2293 24.2664ZM60.3886 21.5024C59.8972 21.7832 59.3269 21.9236 58.6776 21.9236C58.0458 21.9236 57.4843 21.7832 56.9929 21.5024C56.5015 21.2041 56.1155 20.8005 55.8347 20.2916C55.5539 19.7651 55.4135 19.1685 55.4135 18.5016C55.4135 17.8348 55.5539 17.2469 55.8347 16.738C56.1155 16.229 56.5015 15.8342 56.9929 15.5534C57.4843 15.2551 58.0458 15.1059 58.6776 15.1059C59.3269 15.1059 59.8972 15.2551 60.3886 15.5534C60.8799 15.8342 61.266 16.229 61.5468 16.738C61.8276 17.2469 61.968 17.8348 61.968 18.5016C61.968 19.1685 61.8276 19.7651 61.5468 20.2916C61.2836 20.8005 60.8975 21.2041 60.3886 21.5024Z" fill="#2C2C2C"/>
<path d="M74.0083 24.4243C74.8857 24.8981 75.886 25.135 77.0091 25.135C78.1322 25.135 79.1237 24.9069 79.9836 24.4506C80.8611 23.9768 81.5367 23.3187 82.0105 22.4764C82.5019 21.634 82.7475 20.6513 82.7475 19.5282V12.1577H79.2992V19.4492C79.2992 20.2389 79.0974 20.8531 78.6938 21.2918C78.2902 21.7306 77.7286 21.9499 77.0091 21.9499C76.5353 21.9499 76.1229 21.8534 75.7719 21.6604C75.421 21.4673 75.1577 21.1866 74.9822 20.818C74.8068 20.432 74.719 19.9757 74.719 19.4492V12.1577H71.2444V19.5282C71.2444 20.6338 71.49 21.6077 71.9814 22.4501C72.4728 23.2924 73.1484 23.9505 74.0083 24.4243Z" fill="#2C2C2C"/>
<path d="M84.1774 24.8718V12.1577H87.6257V13.2608C87.9342 12.9597 88.2852 12.7061 88.6787 12.4999C89.4157 12.0963 90.2493 11.8945 91.1794 11.8945C92.0568 11.8945 92.8553 12.0963 93.5748 12.4999C94.1777 12.8235 94.6759 13.2641 95.0694 13.8218C95.4947 13.279 96.0143 12.8472 96.6282 12.5263C97.4004 12.1051 98.2603 11.8945 99.2079 11.8945C100.156 11.8945 101.007 12.0963 101.761 12.4999C102.516 12.886 103.112 13.4476 103.551 14.1846C103.99 14.9217 104.209 15.7991 104.209 16.8169V24.8718H100.761V17.3697C100.761 16.6327 100.524 16.0623 100.05 15.6587C99.594 15.2375 99.0236 15.027 98.3392 15.027C97.9005 15.027 97.4881 15.1235 97.102 15.3165C96.7335 15.492 96.444 15.7552 96.2334 16.1062C96.0228 16.4572 95.9175 16.8783 95.9175 17.3697V24.8718H92.4692V17.3697C92.4692 16.6327 92.2323 16.0623 91.7585 15.6587C91.3022 15.2375 90.7319 15.027 90.0475 15.027C89.5912 15.027 89.1788 15.1235 88.8103 15.3165C88.4418 15.492 88.1522 15.7552 87.9416 16.1062C87.731 16.4572 87.6257 16.8783 87.6257 17.3697V24.8718H84.1774Z" fill="#2C2C2C"/>
<path fill-rule="evenodd" clip-rule="evenodd" d="M108.215 24.2927C109.251 24.8542 110.435 25.135 111.769 25.135C112.804 25.135 113.761 24.9508 114.638 24.5822C115.533 24.2137 116.288 23.6697 116.902 22.9502L114.875 20.9233C114.489 21.362 114.033 21.6955 113.506 21.9236C112.98 22.1342 112.392 22.2395 111.743 22.2395C111.023 22.2395 110.391 22.0903 109.847 21.792C109.303 21.4761 108.882 21.0374 108.584 20.4758C108.472 20.2444 108.382 19.9976 108.314 19.7354L117.613 19.7125C117.683 19.4141 117.727 19.1509 117.744 18.9228C117.779 18.6771 117.797 18.4402 117.797 18.212C117.797 17.0012 117.525 15.9219 116.981 14.9743C116.454 14.0091 115.717 13.2545 114.77 12.7105C113.84 12.149 112.76 11.8682 111.532 11.8682C110.286 11.8682 109.154 12.1665 108.136 12.7632C107.119 13.3423 106.311 14.132 105.715 15.1323C105.136 16.115 104.846 17.2381 104.846 18.5016C104.846 19.7827 105.144 20.9233 105.741 21.9236C106.355 22.9239 107.18 23.7136 108.215 24.2927ZM108.318 17.1551C108.379 16.9224 108.459 16.7044 108.558 16.501C108.838 15.9395 109.233 15.5095 109.742 15.2112C110.251 14.8953 110.848 14.7374 111.532 14.7374C112.181 14.7374 112.725 14.8778 113.164 15.1586C113.62 15.4218 113.963 15.8079 114.191 16.3168C114.309 16.5618 114.403 16.8353 114.472 17.1373L108.318 17.1551Z" fill="#2C2C2C"/>
<path fill-rule="evenodd" clip-rule="evenodd" d="M16.0165 32.5165C24.8621 32.5165 32.0329 25.3456 32.0329 16.5C32.0329 7.65434 24.8621 0.483521 16.0165 0.483521C7.17082 0.483521 0 7.65434 0 16.5C0 25.3456 7.17082 32.5165 16.0165 32.5165ZM22.6497 6.69673C22.8399 6.85749 22.9493 7.0938 22.9493 7.34276L22.9489 10.5606L22.9493 10.7723L22.9489 10.7977V21.5693C22.9489 23.44 21.4325 24.9564 19.5617 24.9564C17.691 24.9564 16.1746 23.44 16.1746 21.5693C16.1746 19.6986 17.691 18.1819 19.5617 18.1819C20.1787 18.1819 20.757 18.347 21.2553 18.6352V11.7719L12.787 13.1836V23.2629C12.787 25.1336 11.2706 26.65 9.39986 26.65C7.52914 26.65 6.0127 25.1336 6.0127 23.2629C6.0127 21.3921 7.52914 19.8755 9.39986 19.8755C10.0169 19.8755 10.5955 20.0405 11.0934 20.3288L11.0938 12.4659L11.0934 12.2542L11.0938 12.2289V9.03634C11.0938 8.62253 11.393 8.26919 11.8016 8.20109L21.9631 6.5075C22.2087 6.46657 22.4599 6.53578 22.6497 6.69673Z" fill="#2C2C2C"/>
</svg>
