<svg width="125" height="33" viewBox="0 0 125 33" fill="none" xmlns="http://www.w3.org/2000/svg">
<path d="M42.4498 25.3473C43.7134 25.9702 45.2262 26.2817 46.9882 26.2817C48.8391 26.2817 50.432 25.9346 51.7668 25.2405C53.1016 24.5464 54.1517 23.6209 54.917 22.4641C55.6823 21.3072 56.1539 20.0347 56.3319 18.6465H52.5143C52.3007 19.9457 51.6867 20.9602 50.6723 21.6899C49.6756 22.4018 48.4476 22.7577 46.9882 22.7577C45.9915 22.7577 45.1105 22.5887 44.3452 22.2505C43.5977 21.9124 42.9659 21.4407 42.4498 20.8356C41.9337 20.2127 41.5421 19.4919 41.2752 18.6732C41.026 17.8545 40.9014 16.9646 40.9014 16.0036C40.9014 15.0069 41.026 14.0992 41.2752 13.2805C41.5421 12.4618 41.9248 11.7499 42.4231 11.1448C42.9214 10.5397 43.5443 10.077 44.2918 9.75661C45.0393 9.41846 45.8936 9.24938 46.8547 9.24938C47.798 9.24938 48.6433 9.40956 49.3908 9.72992C50.1383 10.0325 50.7524 10.4952 51.2329 11.1181C51.7312 11.7232 52.0516 12.4707 52.194 13.3606H56.0115C55.8514 11.83 55.3797 10.4952 54.5966 9.35617C53.8135 8.19933 52.7635 7.30945 51.4465 6.68653C50.1472 6.04582 48.6166 5.72546 46.8547 5.72546C45.1639 5.72546 43.6956 6.01912 42.4498 6.60644C41.2218 7.17597 40.2073 7.94126 39.4064 8.90233C38.6055 9.8634 38.0093 10.9313 37.6178 12.1059C37.244 13.2805 37.0571 14.473 37.0571 15.6832V16.2705C37.0571 17.3562 37.244 18.4863 37.6178 19.661C37.9915 20.8356 38.5699 21.9213 39.353 22.9179C40.1539 23.9146 41.1862 24.7244 42.4498 25.3473Z" fill="#2C2C2C"/>
<path fill-rule="evenodd" clip-rule="evenodd" d="M66.2317 24.0125C66.4151 23.7014 66.5664 23.3582 66.6855 22.9827V25.7744H69.6221V16.7778C69.6221 15.4251 69.364 14.3306 68.8479 13.4941C68.3496 12.6576 67.6021 12.0436 66.6054 11.6521C65.6265 11.2605 64.3896 11.0647 62.8946 11.0647C62.4141 11.0647 61.8979 11.0736 61.3462 11.0914C60.8123 11.0914 60.2873 11.1092 59.7711 11.1448C59.255 11.1804 58.7923 11.216 58.3829 11.2516V14.4018C58.8813 14.3662 59.4419 14.3395 60.0648 14.3217C60.7055 14.2861 61.3373 14.2594 61.9602 14.2416C62.5832 14.2238 63.1171 14.2149 63.562 14.2149C64.4163 14.2149 65.0481 14.4196 65.4575 14.8289C65.8668 15.2383 66.0715 15.8612 66.0715 16.6977V16.8311H63.1082C61.8268 16.8311 60.7055 17.0002 59.7444 17.3384C58.8012 17.6765 58.0626 18.1838 57.5286 18.8601C57.0125 19.5364 56.7544 20.4085 56.7544 21.4763C56.7544 22.4552 56.968 23.2917 57.3952 23.9858C57.8401 24.6799 58.4541 25.2138 59.2372 25.5876C60.0381 25.9613 60.9636 26.1482 62.0136 26.1482C63.0281 26.1482 63.8824 25.9702 64.5765 25.6142C65.2884 25.2405 65.8401 24.7066 66.2317 24.0125ZM65.5642 22.2772C65.8668 21.8145 66.0359 21.1916 66.0715 20.4085V19.0469H63.0548C62.2005 19.0469 61.542 19.2605 61.0793 19.6877C60.6343 20.097 60.4118 20.6309 60.4118 21.2894C60.4118 21.9479 60.6343 22.4819 61.0793 22.8912C61.542 23.3006 62.2005 23.5052 63.0548 23.5052C63.5709 23.5052 64.0426 23.4162 64.4697 23.2383C64.9146 23.0425 65.2795 22.7221 65.5642 22.2772Z" fill="#2C2C2C"/>
<path d="M78.6959 26.2817C77.4323 26.2817 76.3377 26.0681 75.4123 25.6409C74.5046 25.2138 73.7393 24.6443 73.1164 23.9324C72.5113 23.2205 72.0574 22.4196 71.7549 21.5297C71.4523 20.6398 71.301 19.7322 71.301 18.8067V18.2994C71.301 17.3206 71.4523 16.3862 71.7549 15.4963C72.0752 14.5887 72.5469 13.7878 73.1698 13.0937C73.7927 12.3818 74.558 11.8211 75.4657 11.4118C76.3911 10.9846 77.459 10.7711 78.6692 10.7711C79.9329 10.7711 81.063 11.0202 82.0597 11.5186C83.0563 11.9991 83.8483 12.6754 84.4356 13.5475C85.0408 14.4196 85.3789 15.434 85.4501 16.5909H81.8461C81.7571 15.8434 81.4367 15.2205 80.885 14.7221C80.3511 14.2238 79.6125 13.9746 78.6692 13.9746C77.8505 13.9746 77.1653 14.1704 76.6136 14.562C76.0797 14.9535 75.6792 15.4963 75.4123 16.1904C75.1453 16.8667 75.0118 17.6498 75.0118 18.5397C75.0118 19.394 75.1364 20.1682 75.3856 20.8623C75.6525 21.5564 76.053 22.0992 76.5869 22.4908C77.1386 22.8823 77.8416 23.0781 78.6959 23.0781C79.3366 23.0781 79.8884 22.9624 80.3511 22.731C80.8138 22.4997 81.1787 22.1793 81.4456 21.77C81.7304 21.3606 81.9084 20.8979 81.9796 20.3818H85.5836C85.5124 21.5564 85.1653 22.5887 84.5424 23.4785C83.9373 24.3506 83.1275 25.0358 82.1131 25.5342C81.1164 26.0325 79.9773 26.2817 78.6959 26.2817Z" fill="#2C2C2C"/>
<path d="M90.2114 25.4541C91.0835 25.7922 92.187 25.9613 93.5218 25.9613H95.6041V22.7844H93.3349C92.623 22.7844 92.0713 22.5976 91.6797 22.2238C91.306 21.8323 91.1191 21.2805 91.1191 20.5686L91.1322 14.0013H95.6041V11.2783H91.1377L91.1458 7.19376H87.6753L87.667 11.2783H85.3527V14.0013H87.6614L87.6486 20.3284C87.6486 21.7344 87.8622 22.8556 88.2893 23.6921C88.7164 24.5108 89.3572 25.0981 90.2114 25.4541Z" fill="#2C2C2C"/>
<path d="M102.323 26.2283C100.65 26.2283 99.3504 25.6765 98.4249 24.5731C97.5173 23.4696 97.0634 21.8323 97.0634 19.661V11.2516H100.774V19.9813C100.774 20.8712 101.023 21.5831 101.522 22.117C102.02 22.6332 102.696 22.8912 103.551 22.8912C104.405 22.8912 105.099 22.6154 105.633 22.0636C106.185 21.5119 106.461 20.7644 106.461 19.8211V11.2516H110.171V25.7744H107.235V22.3987C107.16 22.7058 107.071 22.9946 106.968 23.265C106.594 24.2438 106.033 24.9824 105.286 25.4808C104.538 25.9791 103.604 26.2283 102.483 26.2283H102.323Z" fill="#2C2C2C"/>
<path d="M113.66 24.9735C114.799 25.81 116.365 26.2283 118.358 26.2283C119.64 26.2283 120.752 26.0325 121.695 25.6409C122.639 25.2494 123.368 24.7066 123.885 24.0125C124.418 23.3006 124.685 22.4641 124.685 21.503C124.685 20.2038 124.196 19.1715 123.217 18.4062C122.256 17.6409 120.921 17.1693 119.213 16.9913L117.931 16.8578C117.148 16.7689 116.579 16.5998 116.223 16.3506C115.884 16.1014 115.715 15.7455 115.715 15.2828C115.715 14.8022 115.929 14.4107 116.356 14.1081C116.783 13.8056 117.388 13.6543 118.171 13.6543C119.044 13.6543 119.711 13.8323 120.174 14.1882C120.636 14.5442 120.886 14.9713 120.921 15.4696H124.258C124.205 13.9568 123.626 12.8089 122.523 12.0258C121.42 11.2427 119.978 10.8512 118.198 10.8512C117.059 10.8512 116.045 11.0291 115.155 11.3851C114.283 11.7232 113.598 12.2305 113.099 12.9068C112.601 13.5831 112.352 14.4196 112.352 15.4162C112.352 16.6621 112.788 17.6587 113.66 18.4062C114.532 19.1537 115.778 19.6165 117.397 19.7944L118.679 19.9279C119.64 20.0169 120.316 20.2038 120.708 20.4885C121.117 20.7733 121.322 21.156 121.322 21.6365C121.322 22.1882 121.055 22.6243 120.521 22.9446C120.005 23.265 119.302 23.4251 118.412 23.4251C117.344 23.4251 116.561 23.2205 116.062 22.8111C115.564 22.4018 115.288 21.9479 115.235 21.4496H111.898C111.951 22.9446 112.539 24.1193 113.66 24.9735Z" fill="#2C2C2C"/>
<path fill-rule="evenodd" clip-rule="evenodd" d="M16.0165 0.483521C7.17082 0.483521 0 7.65434 0 16.5C0 25.3456 7.17082 32.5165 16.0165 32.5165C24.8621 32.5165 32.0329 25.3456 32.0329 16.5C32.0329 7.65434 24.8621 0.483521 16.0165 0.483521ZM3.59143 16.5C3.59143 9.63783 9.15431 4.07495 16.0165 4.07495C22.8786 4.07495 28.4415 9.63783 28.4415 16.5C28.4415 22.7626 23.8083 27.943 17.7827 28.8005V26.0597L20.9718 24.8824C22.8149 24.2021 24.0389 22.4454 24.0389 20.4808V15.0844C24.0389 14.0926 23.2349 13.2887 22.2432 13.2887C21.2514 13.2887 20.4475 14.0926 20.4475 15.0844V20.4808C20.4475 20.9416 20.1603 21.3537 19.728 21.5133L17.7827 22.2314V8.01747C17.7827 7.02573 16.9787 6.22176 15.987 6.22176C14.9952 6.22176 14.1912 7.02573 14.1912 8.01747V15.7223L12.304 15.0256C11.8717 14.866 11.5846 14.454 11.5846 13.9931V11.6668C11.5846 10.6751 10.7806 9.87111 9.78885 9.87111C8.79711 9.87111 7.99314 10.6751 7.99314 11.6668V13.9931C7.99314 15.9578 9.21717 17.7144 11.0602 18.3948L14.1912 19.5506V28.7919C8.1944 27.9091 3.59143 22.7421 3.59143 16.5Z" fill="#2C2C2C"/>
</svg>
