<svg width="129" height="27" viewBox="0 0 129 27" fill="none" xmlns="http://www.w3.org/2000/svg">
<path d="M104.233 1.38452V24.8367H107.711V1.38452H104.233Z" fill="#2C2C2C"/>
<path fill-rule="evenodd" clip-rule="evenodd" d="M72.7878 25.2151C71.4154 25.2151 70.2691 24.8997 69.3485 24.2686C69.2477 24.1997 69.1499 24.1279 69.0546 24.0533V24.8365H65.9861V1.76294H69.4893V11.6476C70.3486 11.1023 71.3883 10.8295 72.6086 10.8295C73.9298 10.8295 75.0804 11.1408 76.0606 11.7633C77.0409 12.3859 77.7994 13.2398 78.3362 14.325C78.8818 15.4018 79.1544 16.6343 79.1544 18.0222C79.1544 19.3851 78.886 20.6091 78.349 21.6945C77.8208 22.7797 77.079 23.6378 76.1246 24.2686C75.1699 24.8997 74.0577 25.2151 72.7878 25.2151ZM69.3613 15.8519C69.1566 16.4743 69.0546 17.1977 69.0546 18.0222C69.0546 18.8466 69.1566 19.5703 69.3613 20.1927C69.5657 20.8154 69.8984 21.2989 70.3584 21.644C70.8272 21.9889 71.4495 22.1612 72.2251 22.1612C72.9751 22.1612 73.5889 21.9763 74.0663 21.6061C74.5436 21.236 74.8973 20.7396 75.1273 20.1169C75.3576 19.4861 75.4724 18.788 75.4724 18.0222C75.4724 17.2651 75.3533 16.5754 75.1145 15.953C74.876 15.3219 74.5052 14.8213 74.0023 14.4512C73.5079 14.0726 72.8727 13.8833 72.0972 13.8833C71.3728 13.8833 70.7845 14.0558 70.3331 14.4007C69.8899 14.7456 69.5657 15.2293 69.3613 15.8519Z" fill="#2C2C2C"/>
<path d="M60.4881 16.7855V24.8365H63.9654V15.8772C63.9654 14.3881 63.5605 13.1851 62.7508 12.2681C61.9497 11.3427 60.7607 10.88 59.184 10.88C58.2634 10.88 57.4239 11.0819 56.6653 11.4857C55.9708 11.8518 55.4042 12.355 54.9655 12.9952C54.6384 12.4142 54.1863 11.9363 53.6097 11.5614C52.9194 11.1071 52.0329 10.88 50.9506 10.88C50.0044 10.88 49.1478 11.0861 48.3808 11.4983C47.8011 11.8133 47.3109 12.2143 46.9103 12.7012V11.2081H43.8422V24.8365H47.345V16.5838C47.345 15.8014 47.5625 15.1662 47.9972 14.6783C48.4405 14.1819 49.0241 13.9338 49.7485 13.9338C50.5074 13.9338 51.0995 14.1862 51.5257 14.6909C51.9604 15.1873 52.1779 15.8856 52.1779 16.7855V24.8365H55.6552V16.5838C55.6552 16.0621 55.7533 15.6036 55.9495 15.2083C56.1539 14.8045 56.4351 14.4932 56.7933 14.2745C57.1512 14.0473 57.5731 13.9338 58.059 13.9338C58.8175 13.9338 59.4097 14.1862 59.8359 14.6909C60.2706 15.1873 60.4881 15.8856 60.4881 16.7855Z" fill="#2C2C2C"/>
<path d="M31.3835 24.6976C32.0653 25.0593 32.9475 25.2403 34.0301 25.2403C35.3851 25.2403 36.5061 24.9502 37.3926 24.3696C37.8132 24.0969 38.184 23.7839 38.5047 23.4312V24.8365H41.5732V11.2081H38.07V18.1232C38.07 18.9645 37.972 19.6458 37.7761 20.1675C37.5884 20.6807 37.3456 21.0719 37.0471 21.341C36.7489 21.6019 36.4293 21.7784 36.0885 21.871C35.7476 21.9637 35.4277 22.01 35.1295 22.01C34.388 22.01 33.8126 21.8458 33.4035 21.5178C33.0029 21.1897 32.7132 20.7817 32.5341 20.2937C32.3553 19.8058 32.2487 19.322 32.2145 18.8424C32.1804 18.3547 32.1634 17.9551 32.1634 17.6436V11.2081H28.6349V18.855C28.6349 19.0823 28.6516 19.4441 28.6858 19.9405C28.7199 20.4369 28.818 20.9877 28.98 21.5935C29.1418 22.1907 29.4105 22.767 29.7855 23.3224C30.169 23.8774 30.7018 24.3359 31.3835 24.6976Z" fill="#2C2C2C"/>
<path d="M80.6895 11.2083V24.8367H84.1923V17.8711C84.1923 17.3494 84.2648 16.8825 84.4098 16.4703C84.5548 16.0496 84.7678 15.6879 85.0489 15.3852C85.3304 15.0739 85.6756 14.8257 86.0847 14.6406C86.4938 14.4471 86.9498 14.3335 87.4527 14.2999C87.9639 14.2578 88.4114 14.2957 88.7949 14.4135V11.2083C88.3773 11.1578 87.9596 11.1494 87.542 11.183C87.1243 11.2083 86.7195 11.2798 86.3275 11.3975C85.9354 11.5069 85.5732 11.6626 85.2409 11.8645C84.8062 12.1168 84.4397 12.4365 84.1415 12.8235C84.0001 13.0067 83.8722 13.1993 83.7576 13.4014V11.2083H80.6895Z" fill="#2C2C2C"/>
<path fill-rule="evenodd" clip-rule="evenodd" d="M96.117 25.215C94.702 25.215 93.4533 24.9164 92.371 24.319C91.2969 23.7135 90.4531 22.8848 89.8395 21.8331C89.2343 20.7732 88.9318 19.5618 88.9318 18.1989C88.9318 16.71 89.23 15.4144 89.8267 14.3123C90.4232 13.2102 91.2457 12.3564 92.2942 11.7507C93.3424 11.1365 94.5487 10.8295 95.9122 10.8295C97.3613 10.8295 98.5929 11.166 99.607 11.839C100.621 12.512 101.371 13.4584 101.857 14.6782C102.343 15.8982 102.514 17.3324 102.369 18.9812H92.6735C92.7819 19.7993 93.0393 20.4638 93.4448 20.975C94.0074 21.665 94.8299 22.0099 95.9122 22.0099C96.5943 22.0099 97.178 21.8625 97.6638 21.5682C98.1497 21.2738 98.5204 20.849 98.776 20.2936L102.254 21.278C101.734 22.5231 100.911 23.4904 99.7862 24.1801C98.6697 24.8701 97.4466 25.215 96.117 25.215ZM98.2521 14.7287C98.5491 15.1272 98.7486 15.6952 98.8503 16.4322H92.7649C92.9004 15.8029 93.1271 15.2854 93.4448 14.8801C94.0074 14.1651 94.8811 13.8075 96.0658 13.8075C97.0802 13.8075 97.8088 14.1146 98.2521 14.7287Z" fill="#2C2C2C"/>
<path d="M110.52 24.8367V1.38452H113.998V24.8367H110.52Z" fill="#2C2C2C"/>
<path fill-rule="evenodd" clip-rule="evenodd" d="M117.869 24.6597C118.559 25.0298 119.399 25.215 120.387 25.215C121.581 25.215 122.565 25.0129 123.341 24.6091C123.959 24.2841 124.543 23.8025 125.092 23.1635V24.8365H128.135V16.5079C128.135 15.8855 128.11 15.3218 128.059 14.8171C128.007 14.3123 127.845 13.8075 127.573 13.3028C127.087 12.3942 126.371 11.7549 125.425 11.3847C124.479 11.0146 123.396 10.8295 122.177 10.8295C120.515 10.8295 119.203 11.1828 118.24 11.8895C117.277 12.5961 116.62 13.5131 116.271 14.6404L119.416 15.6246C119.637 15.0021 120.025 14.5689 120.579 14.3249C121.133 14.0809 121.666 13.9589 122.177 13.9589C123.098 13.9589 123.754 14.1482 124.146 14.5268C124.454 14.8241 124.641 15.2535 124.707 15.8155C124.119 15.9036 123.561 15.9872 123.034 16.0662C122.139 16.1925 121.338 16.3272 120.631 16.47C119.923 16.6132 119.314 16.7773 118.802 16.9622C118.061 17.2313 117.468 17.5681 117.025 17.9719C116.59 18.3673 116.275 18.8255 116.079 19.3471C115.883 19.8688 115.785 20.4452 115.785 21.076C115.785 21.8331 115.96 22.527 116.309 23.1581C116.667 23.7805 117.187 24.2811 117.869 24.6597ZM122.74 22.1864C122.305 22.4052 121.768 22.5147 121.129 22.5147C120.728 22.5147 120.383 22.4558 120.094 22.3379C119.804 22.22 119.578 22.052 119.416 21.8331C119.263 21.6061 119.186 21.3367 119.186 21.0255C119.186 20.7985 119.233 20.5922 119.326 20.4073C119.429 20.2221 119.582 20.054 119.787 19.9025C120 19.7425 120.277 19.5955 120.618 19.4608C120.916 19.3514 121.261 19.2503 121.653 19.158C122.045 19.0654 122.561 18.9644 123.2 18.8549C123.611 18.7795 124.103 18.6932 124.675 18.5967C124.667 18.8366 124.653 19.1078 124.632 19.4103C124.607 19.8983 124.504 20.3273 124.325 20.6974C124.232 20.8908 124.052 21.1307 123.788 21.4166C123.533 21.7026 123.183 21.9594 122.74 22.1864Z" fill="#2C2C2C"/>
<path fill-rule="evenodd" clip-rule="evenodd" d="M9.44337 11.3065H0V15.3655C0 21.4264 4.97806 26.3399 11.1188 26.3399C17.2596 26.3399 22.2378 21.4264 22.2378 15.3655V11.3065H12.4896V4.84213C12.4896 2.26828 10.3756 0.181763 7.76794 0.181763C5.16022 0.181763 3.04625 2.26828 3.04625 4.84213H6.0925C6.0925 3.92882 6.84264 3.18845 7.76794 3.18845C8.69326 3.18845 9.44337 3.92882 9.44337 4.84213V11.3065ZM9.44337 14.3132V20.0259H12.4896V14.3132H19.1915V15.3655C19.1915 19.7661 15.5771 23.3333 11.1188 23.3333C6.66047 23.3333 3.04625 19.7661 3.04625 15.3655V14.3132H9.44337Z" fill="#2C2C2C"/>
</svg>
