<svg width="122" height="28" viewBox="0 0 122 28" fill="none" xmlns="http://www.w3.org/2000/svg">
<path d="M53.0706 4.2562C53.4939 4.69497 54.1396 4.91437 55.0075 4.91437C55.8753 4.91437 56.5104 4.69497 56.9126 4.2562C57.3151 3.79652 57.516 3.23237 57.516 2.56375C57.516 1.8533 57.3151 1.27874 56.9126 0.839931C56.5104 0.401165 55.8753 0.181763 55.0075 0.181763C54.1396 0.181763 53.4939 0.401165 53.0706 0.839931C52.668 1.27874 52.4672 1.8533 52.4672 2.56375C52.4672 3.23237 52.668 3.79652 53.0706 4.2562Z" fill="#2C2C2C"/>
<path d="M32.9119 6.95154L38.3102 23.9702H45.3912L50.0591 6.95154H45.8043L42.2918 20.3973H41.542L37.453 6.95154H32.9119Z" fill="#2C2C2C"/>
<path d="M67.5556 24.503C65.1848 24.503 63.3217 24.012 61.967 23.0296C60.6335 22.0267 59.9348 20.6478 59.8712 18.8929H63.8403C63.9039 19.4776 64.2323 20.0104 64.8247 20.491C65.4175 20.9715 66.3492 21.212 67.6192 21.212C68.6777 21.212 69.5137 21.0238 70.1277 20.6478C70.7629 20.2718 71.0802 19.7599 71.0802 19.1121C71.0802 18.548 70.837 18.0987 70.3501 17.7644C69.8844 17.4301 69.0798 17.2107 67.9366 17.1062L66.4124 16.9495C64.4861 16.7406 63.0043 16.1973 61.967 15.3198C60.9297 14.4422 60.4111 13.2721 60.4111 11.8095C60.4111 10.6394 60.7073 9.65735 61.3001 8.86338C61.8929 8.06938 62.7081 7.4739 63.7454 7.07691C64.8035 6.65902 66.0103 6.45007 67.3653 6.45007C69.4819 6.45007 71.1968 6.90975 72.5095 7.8291C73.8218 8.74846 74.5099 10.0962 74.5735 11.8722H70.604C70.5616 11.2871 70.2654 10.7857 69.715 10.3678C69.1645 9.9499 68.3709 9.74096 67.3336 9.74096C66.4018 9.74096 65.6823 9.91854 65.1742 10.2737C64.6662 10.6289 64.412 11.0886 64.412 11.6528C64.412 12.1961 64.6132 12.6139 65.0153 12.9065C65.4387 13.199 66.1162 13.3975 67.0476 13.5019L68.5717 13.6586C70.604 13.8676 72.1917 14.4213 73.3349 15.3198C74.4993 16.2182 75.0815 17.4301 75.0815 18.9552C75.0815 20.0836 74.7637 21.0656 74.129 21.9016C73.515 22.7164 72.6468 23.3537 71.5251 23.8134C70.4031 24.273 69.0798 24.503 67.5556 24.503Z" fill="#2C2C2C"/>
<path d="M77.6486 4.2562C78.0723 4.69497 78.7177 4.91437 79.5859 4.91437C80.4537 4.91437 81.0889 4.69497 81.491 4.2562C81.8931 3.79652 82.0944 3.23237 82.0944 2.56375C82.0944 1.8533 81.8931 1.27874 81.491 0.839931C81.0889 0.401165 80.4537 0.181763 79.5859 0.181763C78.7177 0.181763 78.0723 0.401165 77.6486 0.839931C77.2465 1.27874 77.0456 1.8533 77.0456 2.56375C77.0456 3.23237 77.2465 3.79652 77.6486 4.2562Z" fill="#2C2C2C"/>
<path fill-rule="evenodd" clip-rule="evenodd" d="M94.167 24.5653C92.6428 24.5653 91.2987 24.3252 90.1343 23.8447C88.9699 23.3641 87.9856 22.7163 87.1809 21.9015C86.3767 21.0655 85.7627 20.1253 85.3394 19.0806C84.9372 18.0359 84.736 16.9494 84.736 15.8211V15.163C84.736 13.9929 84.9478 12.8854 85.3711 11.8408C85.8156 10.7751 86.4402 9.83488 87.2445 9.02C88.0703 8.18421 89.0652 7.53649 90.2296 7.07682C91.3937 6.59623 92.7064 6.35596 94.167 6.35596C95.6276 6.35596 96.9403 6.59623 98.1043 7.07682C99.2687 7.53649 100.253 8.18421 101.058 9.02C101.883 9.83488 102.508 10.7751 102.931 11.8408C103.354 12.8854 103.566 13.9929 103.566 15.163V15.8211C103.566 16.9494 103.354 18.0359 102.931 19.0806C102.529 20.1253 101.926 21.0655 101.121 21.9015C100.317 22.7163 99.3323 23.3641 98.1679 23.8447C97.0039 24.3252 95.67 24.5653 94.167 24.5653ZM94.167 20.8359C95.2466 20.8359 96.1568 20.6059 96.8979 20.1463C97.6386 19.6657 98.1997 19.0283 98.581 18.2344C98.9619 17.4196 99.1522 16.5002 99.1522 15.4764C99.1522 14.4316 98.9513 13.5123 98.5492 12.7183C98.1679 11.9034 97.5963 11.2661 96.8344 10.8065C96.0933 10.3259 95.2043 10.0856 94.167 10.0856C93.1297 10.0856 92.2301 10.3259 91.4678 10.8065C90.7271 11.2661 90.1555 11.9034 89.753 12.7183C89.3508 13.5123 89.15 14.4316 89.15 15.4764C89.15 16.5002 89.3403 17.4196 89.7216 18.2344C90.1237 19.0283 90.6953 19.6657 91.436 20.1463C92.1771 20.6059 93.0873 20.8359 94.167 20.8359Z" fill="#2C2C2C"/>
<path d="M109.717 9.92911C109.565 10.3035 109.438 10.709 109.336 11.1455V6.95165H105.843V23.9703H110.257V13.9722C110.257 12.8648 110.585 11.9872 111.241 11.3395C111.919 10.6709 112.797 10.3365 113.877 10.3365C114.935 10.3365 115.761 10.6604 116.354 11.3081C116.968 11.9559 117.274 12.8021 117.274 13.8468V23.9703H121.688V14.2229C121.688 11.632 121.159 9.68883 120.101 8.39337C119.042 7.07703 117.486 6.41882 115.433 6.41882H115.242C113.866 6.41882 112.713 6.71137 111.781 7.2964C110.871 7.88146 110.183 8.75903 109.717 9.92911Z" fill="#2C2C2C"/>
<path d="M53.3878 10.2111V23.9702H57.8018V6.95154H50.9747V10.2111H53.3878Z" fill="#2C2C2C"/>
<path d="M77.9662 10.2111V23.9702H82.3798V6.95154H75.5526V10.2111H77.9662Z" fill="#2C2C2C"/>
<path fill-rule="evenodd" clip-rule="evenodd" d="M13.8225 27.4678C21.4563 27.4678 27.6449 21.3595 27.6449 13.8248C27.6449 6.28993 21.4563 0.181763 13.8225 0.181763C6.18853 0.181763 0 6.28993 0 13.8248C0 21.3595 6.18853 27.4678 13.8225 27.4678ZM23.9951 12.409C22.7062 13.8966 20.8907 14.8231 18.8793 14.8231C14.9691 14.8231 11.7994 11.322 11.7994 7.00328C11.7994 5.91676 12 4.882 12.3626 3.9417C7.46295 4.67619 3.70836 8.85181 3.70836 13.8929C3.70836 15.3638 4.02799 16.761 4.60244 18.0205C5.18517 17.4854 6.00411 17.1524 6.91116 17.1524C8.67998 17.1524 10.1139 18.4188 10.1139 19.981C10.1139 21.0298 9.46737 21.9454 8.50702 22.4338C10.0729 23.4001 11.9237 23.9587 13.9067 23.9587C19.5391 23.9587 24.1052 19.4523 24.1052 13.8929C24.1052 13.3888 24.0673 12.8933 23.9951 12.409Z" fill="#2C2C2C"/>
<mask id="mask0_1001_482" style="mask-type:alpha" maskUnits="userSpaceOnUse" x="0" y="0" width="28" height="28">
<path fill-rule="evenodd" clip-rule="evenodd" d="M13.8225 27.4678C21.4563 27.4678 27.6449 21.3595 27.6449 13.8248C27.6449 6.28993 21.4563 0.181763 13.8225 0.181763C6.18853 0.181763 0 6.28993 0 13.8248C0 21.3595 6.18853 27.4678 13.8225 27.4678ZM23.9951 12.409C22.7062 13.8966 20.8907 14.8231 18.8793 14.8231C14.9691 14.8231 11.7994 11.322 11.7994 7.00328C11.7994 5.91676 12 4.882 12.3626 3.9417C7.46295 4.67619 3.70836 8.85181 3.70836 13.8929C3.70836 15.3638 4.02799 16.761 4.60244 18.0205C5.18517 17.4854 6.00411 17.1524 6.91116 17.1524C8.67998 17.1524 10.1139 18.4188 10.1139 19.981C10.1139 21.0298 9.46737 21.9454 8.50702 22.4338C10.0729 23.4001 11.9237 23.9587 13.9067 23.9587C19.5391 23.9587 24.1052 19.4523 24.1052 13.8929C24.1052 13.3888 24.0673 12.8933 23.9951 12.409Z" fill="#2C2C2C"/>
</mask>
<g mask="url(#mask0_1001_482)">
<path d="M23.9944 12.4091L24.9946 12.2632L24.67 10.0932L23.2257 11.7603L23.9944 12.4091ZM12.3619 3.94178L13.3072 4.29687L13.9237 2.69795L12.21 2.95484L12.3619 3.94178ZM4.60174 18.0206L3.67948 18.4303L4.25828 19.6995L5.29066 18.7515L4.60174 18.0206ZM8.50632 22.4338L8.04309 21.5463L6.46286 22.3498L7.97008 23.2803L8.50632 22.4338ZM26.633 13.8248C26.633 20.8085 20.8972 26.4694 13.8218 26.4694V28.4659C22.0144 28.4659 28.6558 21.9111 28.6558 13.8248H26.633ZM13.8218 1.18009C20.8972 1.18009 26.633 6.84135 26.633 13.8248H28.6558C28.6558 5.7387 22.0144 -0.816406 13.8218 -0.816406V1.18009ZM1.01072 13.8248C1.01072 6.84135 6.74643 1.18009 13.8218 1.18009V-0.816406C5.62927 -0.816406 -1.01208 5.7387 -1.01208 13.8248H1.01072ZM13.8218 26.4694C6.74643 26.4694 1.01072 20.8085 1.01072 13.8248H-1.01208C-1.01208 21.9111 5.62927 28.4659 13.8218 28.4659V26.4694ZM18.8786 15.8214C21.2184 15.8214 23.3044 14.7415 24.7631 13.0579L23.2257 11.7603C22.1067 13.0519 20.5617 13.8249 18.8786 13.8249V15.8214ZM10.7873 7.00336C10.7873 11.7649 14.3059 15.8214 18.8786 15.8214V13.8249C15.631 13.8249 12.8101 10.8793 12.8101 7.00336H10.7873ZM11.4167 3.58669C11.0104 4.64016 10.7873 5.79527 10.7873 7.00336H12.8101C12.8101 6.03842 12.9882 5.12396 13.3072 4.29687L11.4167 3.58669ZM4.71908 13.893C4.71908 9.35275 8.1009 5.59024 12.5138 4.92875L12.21 2.95484C6.82357 3.76233 2.69628 8.35103 2.69628 13.893H4.71908ZM5.52399 17.6108C5.00716 16.4776 4.71908 15.2199 4.71908 13.893H2.69628C2.69628 15.5079 3.04745 17.0445 3.67948 18.4303L5.52399 17.6108ZM6.91046 16.1543C5.75309 16.1543 4.68655 16.5792 3.91281 17.2897L5.29066 18.7515C5.68239 18.3917 6.25377 18.1508 6.91046 18.1508V16.1543ZM11.1246 19.9811C11.1246 17.766 9.12915 16.1543 6.91046 16.1543V18.1508C8.22944 18.1508 9.10184 19.0719 9.10184 19.9811H11.1246ZM8.96951 23.3214C10.2144 22.6881 11.1246 21.4582 11.1246 19.9811H9.10184C9.10184 20.6016 8.71892 21.2028 8.04309 21.5463L8.96951 23.3214ZM13.906 22.9607C12.1181 22.9607 10.4524 22.4574 9.04256 21.5874L7.97008 23.2803C9.69206 24.343 11.7279 24.9572 13.906 24.9572V22.9607ZM23.0929 13.893C23.0929 18.9009 18.9796 22.9607 13.906 22.9607V24.9572C20.0968 24.9572 25.1157 20.0035 25.1157 13.893H23.0929ZM22.9938 12.555C23.0588 12.9911 23.0929 13.4379 23.0929 13.893H25.1157C25.1157 13.3399 25.0744 12.7956 24.9946 12.2632L22.9938 12.555Z" fill="#2C2C2C"/>
</g>
</svg>
