<svg width="119" height="25" viewBox="0 0 119 25" fill="none" xmlns="http://www.w3.org/2000/svg">
<path d="M4.6206 0.168823H0.409319C0.183252 0.168823 0 0.349696 0 0.572827V8.40525L4.6206 0.168823Z" fill="#2C2C2C"/>
<path d="M0 10.9245C0.0133029 10.9251 0.0267286 10.9254 0.0402771 10.9254H6.46078C6.96334 10.9254 7.35821 11.3491 7.31536 11.8425L6.75979 18.2378C6.68083 19.1465 7.91718 19.5169 8.36502 18.7187L15.0366 6.82628C15.3525 6.26306 14.9391 5.57241 14.2859 5.57241H7.8654C7.36284 5.57241 6.96797 5.14865 7.01082 4.65532L7.40058 0.168823H13.8797C19.8501 0.168823 22.5265 7.58088 17.9089 11.3279L14.2992 14.2571C14.0627 14.4489 14.0162 14.789 14.1925 15.0363L20.4214 23.7723C20.6125 24.0402 20.4185 24.409 20.0867 24.409H0.409319C0.183252 24.409 0 24.228 0 24.005V10.9245Z" fill="#2C2C2C"/>
<path d="M70.1388 13.291V19.4162H73.5665V12.5392C73.5665 11.7285 73.3876 11.0208 73.029 10.4164C72.6856 9.79719 72.1928 9.31805 71.5506 8.97913C70.9079 8.62522 70.1613 8.4483 69.3099 8.4483C68.4737 8.4483 67.7341 8.62522 67.0922 8.97913C66.9216 9.0691 66.7611 9.1697 66.6105 9.28055C66.529 9.34035 66.4508 9.40325 66.3751 9.46914V3.80481H62.9475V19.4162H66.3751V13.291C66.3751 12.9225 66.4574 12.5982 66.6219 12.3181C66.7861 12.0232 67.01 11.802 67.2936 11.6547C67.5777 11.4925 67.906 11.4114 68.2793 11.4114C68.8171 11.4114 69.258 11.5884 69.6014 11.9421C69.9599 12.2812 70.1388 12.7308 70.1388 13.291Z" fill="#2C2C2C"/>
<path fill-rule="evenodd" clip-rule="evenodd" d="M32.055 12.9815V19.4162H28.5381V3.80481H34.9898C36.0356 3.80481 36.9541 4.00386 37.7457 4.40173C38.5369 4.78504 39.1571 5.32318 39.6053 6.01596C40.0531 6.70879 40.277 7.50496 40.277 8.40411C40.277 9.31804 40.0531 10.1215 39.6053 10.8143C39.1571 11.4925 38.53 12.0232 37.7232 12.4065C37.2734 12.6203 36.7793 12.7745 36.2411 12.869L41.308 19.4162H37.1408L32.4233 12.9815H32.055ZM32.055 10.4164H34.5645C35.2665 10.4164 35.8043 10.2395 36.1776 9.88559C36.5657 9.53188 36.7601 9.05269 36.7601 8.4483C36.7601 7.88823 36.5734 7.42387 36.1997 7.05538C35.8264 6.68669 35.289 6.50242 34.587 6.50242H32.055V10.4164Z" fill="#2C2C2C"/>
<path fill-rule="evenodd" clip-rule="evenodd" d="M43.5706 18.9519C44.4969 19.4235 45.5496 19.6595 46.7293 19.6595C47.6408 19.6595 48.4771 19.5046 49.2388 19.1951C50.0002 18.8854 50.6502 18.421 51.188 17.802L49.3059 15.9445C48.9773 16.313 48.5966 16.5931 48.1631 16.7849C47.7301 16.9616 47.245 17.0502 46.7068 17.0502C46.1247 17.0502 45.6167 16.9322 45.1837 16.6963C44.7654 16.4458 44.4371 16.0993 44.1981 15.6571C44.1227 15.5036 44.0605 15.3403 44.0106 15.1669L51.8151 15.1485C51.8748 14.8684 51.9121 14.6252 51.9268 14.4189C51.9375 14.3417 51.9456 14.2665 51.9526 14.193C51.9563 14.1565 51.9587 14.1206 51.9612 14.0851C51.9649 14.0316 51.9678 13.9791 51.9694 13.9277L51.971 13.8708L51.9718 13.7996C51.9718 12.7529 51.7332 11.8242 51.2551 11.0134C50.7922 10.2026 50.15 9.56883 49.3285 9.11174C48.507 8.65489 47.5582 8.42627 46.4833 8.42627C45.3777 8.42627 44.3847 8.66948 43.5034 9.15594C42.6222 9.6424 41.9202 10.3133 41.3975 11.1683C40.8895 12.0084 40.6357 12.9667 40.6357 14.0428C40.6357 15.119 40.8973 16.0846 41.4196 16.9395C41.9427 17.7945 42.6598 18.4654 43.5706 18.9519ZM44.0114 12.8445C44.0282 12.7868 44.0462 12.7304 44.0654 12.6752C44.0982 12.5821 44.1346 12.4923 44.1755 12.4065C44.3998 11.9642 44.706 11.6251 45.094 11.3894C45.4972 11.1387 45.9679 11.0134 46.5054 11.0134C47.0129 11.0134 47.4386 11.1241 47.7825 11.3452L47.8287 11.3724L47.8746 11.4014C47.9134 11.4269 47.9507 11.4537 47.9871 11.4817C48.0227 11.5091 48.0575 11.5379 48.0911 11.5679C48.2994 11.7542 48.4652 11.9895 48.5888 12.274C48.6641 12.4404 48.7247 12.6261 48.771 12.831L44.0114 12.8445Z" fill="#2C2C2C"/>
<path d="M57.995 19.6595C56.8743 19.6595 55.8588 19.4162 54.9476 18.9298C54.0369 18.4433 53.3202 17.7724 52.797 16.9174C52.2743 16.0625 52.0128 15.1042 52.0128 14.0428C52.0128 12.9667 52.2743 12.0084 52.797 11.1683C53.3349 10.3133 54.059 9.6424 54.9701 9.15594C55.8813 8.66948 56.9042 8.42627 58.0396 8.42627C58.8906 8.42627 59.6671 8.57381 60.3695 8.86853C60.7272 9.0084 61.0649 9.18495 61.3817 9.39818C61.6993 9.61222 61.9969 9.86315 62.2736 10.1512L60.078 12.3182C59.8242 12.038 59.5254 11.8317 59.182 11.6989C59.0269 11.6364 58.8607 11.5886 58.6822 11.5555C58.6008 11.5403 58.5173 11.5283 58.4313 11.5194C58.3425 11.5101 58.2512 11.5042 58.1571 11.5017C58.1182 11.5005 58.0793 11.4999 58.0396 11.4999C57.9184 11.4999 57.8006 11.5066 57.686 11.5198L57.6241 11.5277L57.5857 11.5332C57.546 11.5393 57.5063 11.5464 57.467 11.5541C57.1985 11.6074 56.9488 11.6999 56.7175 11.8317C56.3442 12.038 56.0458 12.3327 55.8215 12.716C55.6123 13.0847 55.5076 13.5195 55.5076 14.0207C55.5076 14.522 55.6123 14.9643 55.8215 15.3474C56.0458 15.7307 56.352 16.0329 56.74 16.254C57.1281 16.4752 57.5615 16.5858 58.0396 16.5858C58.4878 16.5858 58.8832 16.512 59.2266 16.3647C59.5852 16.2025 59.8914 15.9814 60.1451 15.7013L62.3186 17.8683C61.7509 18.4579 61.1087 18.9075 60.392 19.2172C59.6748 19.5119 58.8758 19.6595 57.995 19.6595Z" fill="#2C2C2C"/>
<path fill-rule="evenodd" clip-rule="evenodd" d="M79.4199 19.6374C78.4195 19.6374 77.5231 19.3941 76.7319 18.9075C75.955 18.421 75.3353 17.7578 74.8723 16.9174C74.4241 16.0773 74.1998 15.119 74.1998 14.0428C74.1998 12.9667 74.4241 12.0084 74.8723 11.1683C75.3353 10.3279 75.955 9.6647 76.7319 9.17803C77.5231 8.69157 78.4195 8.44836 79.4199 8.44836C80.1517 8.44836 80.8091 8.58839 81.3916 8.86853C81.7833 9.05219 82.1267 9.28336 82.4218 9.56192V8.66948H85.7823V19.4162H82.4218V18.5455C82.22 18.7339 81.9933 18.9007 81.742 19.0461C81.6961 19.0728 81.649 19.0988 81.6011 19.1241C81.5402 19.1562 81.4775 19.1872 81.4137 19.2172C80.8165 19.4973 80.1517 19.6374 79.4199 19.6374ZM80.1149 16.5858C80.8468 16.5858 81.4362 16.3499 81.8844 15.8782C82.3326 15.3918 82.5565 14.7798 82.5565 14.0428C82.5565 13.7921 82.5303 13.5562 82.4779 13.3351C82.4255 13.1139 82.3473 12.9076 82.243 12.716C82.0485 12.3327 81.7649 12.038 81.3916 11.8317C81.1898 11.7072 80.9692 11.6179 80.7297 11.5634C80.5435 11.521 80.3462 11.4999 80.137 11.4999C79.8984 11.4999 79.6724 11.5275 79.46 11.5827C79.3302 11.6164 79.205 11.6604 79.0851 11.7147C79.0081 11.7494 78.9332 11.7885 78.8599 11.8317C78.5014 12.038 78.2103 12.3327 77.986 12.716C77.7773 13.0993 77.6729 13.5416 77.6729 14.0428C77.6729 14.5293 77.7773 14.9643 77.986 15.3474C78.1952 15.7307 78.4866 16.0329 78.8599 16.254C79.2332 16.4752 79.6516 16.5858 80.1149 16.5858Z" fill="#2C2C2C"/>
<path d="M90.7274 8.66948H87.2998V19.4162H90.7274V13.5122C90.7274 12.8192 90.892 12.3033 91.2202 11.9642C91.5641 11.6105 92.0196 11.4336 92.587 11.4336C92.871 11.4336 93.1248 11.4778 93.3491 11.5663C93.5726 11.6547 93.7597 11.78 93.9091 11.9421L95.9475 9.39919C95.6491 9.07485 95.2979 8.83912 94.8947 8.69158C94.5067 8.52941 94.0507 8.44836 93.528 8.44836C92.3332 8.44836 91.3999 8.79496 90.7274 9.48774V8.66948Z" fill="#2C2C2C"/>
<path fill-rule="evenodd" clip-rule="evenodd" d="M100.274 24.2365C99.0787 24.2365 98.0256 24.0301 97.1148 23.6176C96.2184 23.2197 95.5091 22.652 94.9864 21.9147L97.0919 19.8362C97.4804 20.2933 97.9138 20.6397 98.3915 20.8756C98.8843 21.1112 99.4741 21.2291 100.161 21.2291C101.013 21.2291 101.677 21.0231 102.155 20.6102C102.648 20.1974 102.895 19.6151 102.895 18.8633V18.1845C102.662 18.3687 102.4 18.5285 102.111 18.6642C101.513 18.9443 100.849 19.0844 100.117 19.0844C99.1156 19.0844 98.2274 18.8487 97.4505 18.3768C96.674 17.9052 96.0617 17.2638 95.6134 16.453C95.1652 15.6423 94.9413 14.7431 94.9413 13.7554C94.9413 12.7529 95.1652 11.8538 95.6134 11.0576C96.0617 10.2468 96.674 9.61303 97.4505 9.15594C98.2274 8.68426 99.1156 8.44836 100.117 8.44836C100.863 8.44836 101.528 8.58839 102.111 8.86853C102.164 8.8922 102.217 8.91685 102.268 8.9425C102.522 9.06916 102.754 9.21888 102.962 9.39167V8.66948H106.322V18.7749C106.322 19.8806 106.061 20.8389 105.538 21.6493C105.016 22.4601 104.299 23.094 103.388 23.5509C102.476 24.0083 101.438 24.2365 100.274 24.2365ZM100.766 16.0773C101.244 16.0773 101.655 15.9739 101.998 15.7676C102.086 15.7169 102.169 15.662 102.246 15.6032C102.483 15.4231 102.67 15.2052 102.805 14.9495C102.863 14.8441 102.912 14.7351 102.952 14.622C103.005 14.4755 103.043 14.3222 103.067 14.1624C103.087 14.0312 103.096 13.8955 103.096 13.7554C103.096 13.3132 102.999 12.9151 102.805 12.5614C102.626 12.2075 102.357 11.9274 101.998 11.721C101.655 11.5147 101.244 11.4115 100.766 11.4115C100.625 11.4115 100.489 11.4212 100.358 11.4403L100.289 11.4514L100.229 11.4624C100.098 11.4883 99.9731 11.5239 99.8532 11.5695C99.7861 11.5949 99.7206 11.6235 99.6571 11.6551C99.6154 11.6758 99.5748 11.6977 99.5343 11.721C99.1757 11.9274 98.8995 12.2075 98.7054 12.5614C98.6039 12.7456 98.529 12.9419 98.4807 13.1502C98.4361 13.3418 98.414 13.5436 98.414 13.7554C98.414 14.1681 98.511 14.5587 98.7054 14.9274C98.8995 15.2811 99.168 15.5612 99.5118 15.7676C99.7042 15.8784 99.9142 15.9597 100.141 16.011C100.337 16.0552 100.545 16.0773 100.766 16.0773Z" fill="#2C2C2C"/>
<path fill-rule="evenodd" clip-rule="evenodd" d="M110.063 18.9519C110.989 19.4235 112.042 19.6595 113.222 19.6595C114.133 19.6595 114.97 19.5046 115.731 19.1951C116.493 18.8854 117.142 18.421 117.68 17.802L115.798 15.9445C115.47 16.313 115.089 16.5931 114.656 16.7849C114.223 16.9616 113.737 17.0502 113.2 17.0502C112.617 17.0502 112.109 16.9322 111.676 16.6963C111.377 16.5176 111.125 16.2899 110.918 16.0134C110.884 15.9694 110.853 15.924 110.822 15.8774C110.776 15.807 110.731 15.7334 110.69 15.6571C110.615 15.5036 110.553 15.3403 110.503 15.1669L118.308 15.1485C118.337 15.0102 118.361 14.8808 118.38 14.7605C118.399 14.637 118.412 14.5232 118.42 14.4189C118.43 14.3409 118.438 14.2648 118.445 14.1906C118.458 14.0541 118.464 13.9237 118.464 13.7996C118.464 12.7529 118.225 11.8242 117.748 11.0134C117.284 10.2026 116.642 9.56883 115.821 9.11174C114.999 8.65489 114.051 8.42627 112.976 8.42627C111.871 8.42627 110.877 8.66948 109.995 9.15594C109.115 9.6424 108.413 10.3133 107.89 11.1683C107.382 12.0084 107.128 12.9667 107.128 14.0428C107.128 15.119 107.389 16.0846 107.912 16.9395C108.435 17.7945 109.152 18.4654 110.063 18.9519ZM110.504 12.8445C110.549 12.6894 110.603 12.5432 110.668 12.4065C110.796 12.154 110.95 11.9352 111.132 11.7502C111.195 11.6853 111.262 11.6246 111.333 11.5679C111.413 11.503 111.497 11.4434 111.586 11.3894C111.99 11.1387 112.46 11.0134 112.998 11.0134C113.506 11.0134 113.931 11.1241 114.275 11.3452C114.412 11.4241 114.536 11.518 114.647 11.6271C114.825 11.8033 114.971 12.0189 115.081 12.274C115.156 12.4404 115.217 12.6261 115.263 12.831L110.504 12.8445Z" fill="#2C2C2C"/>
</svg>
