<svg width="113" height="33" viewBox="0 0 113 33" fill="none" xmlns="http://www.w3.org/2000/svg">
<path d="M53.0588 19.814V31.1811H56.7521V19.0753C56.7521 17.5433 56.4238 16.1891 55.7672 15.0127C55.1107 13.8363 54.2078 12.9198 53.0588 12.2633C51.9372 11.6067 50.6377 11.2784 49.1603 11.2784C47.683 11.2784 46.3562 11.6203 45.1798 12.3043C44.2937 12.7989 43.555 13.4332 42.9638 14.2072V1.88098H39.2705V31.1811H42.9638V19.814C42.9638 18.8291 43.1827 17.9537 43.6204 17.1876C44.0581 16.4216 44.66 15.8198 45.426 15.382C46.192 14.9443 47.0675 14.7255 48.0523 14.7255C49.5297 14.7255 50.7334 15.2042 51.6636 16.1617C52.5937 17.1193 53.0588 18.3367 53.0588 19.814Z" fill="#2C2C2C"/>
<path d="M63.2298 30.5246C64.5156 31.2359 65.9656 31.5915 67.5797 31.5915C69.2212 31.5915 70.6574 31.2359 71.8885 30.5246C73.147 29.7859 74.1319 28.7737 74.8432 27.4878C75.5545 26.202 75.9101 24.711 75.9101 23.0149V11.6887H72.2168V22.8507C72.2168 24.4648 71.8065 25.7369 70.9857 26.6671C70.165 27.5699 69.0297 28.0213 67.5797 28.0213C66.6222 28.0213 65.7878 27.8161 65.0765 27.4058C64.3652 26.9954 63.818 26.4072 63.435 25.6412C63.0793 24.8478 62.9015 23.9177 62.9015 22.8507V11.6887H59.2082V23.0149C59.2082 24.711 59.5639 26.202 60.2752 27.4878C60.9865 28.7737 61.9714 29.7859 63.2298 30.5246Z" fill="#2C2C2C"/>
<path fill-rule="evenodd" clip-rule="evenodd" d="M87.8364 31.5915C85.894 31.5915 84.1431 31.1538 82.5837 30.2783C81.0243 29.3755 79.7932 28.1581 78.8904 26.6261C77.9876 25.094 77.5362 23.3568 77.5362 21.4144C77.5362 19.4994 77.9739 17.7758 78.8494 16.2438C79.7522 14.7118 80.9559 13.508 82.4606 12.6326C83.9926 11.7298 85.7025 11.2784 87.5902 11.2784C89.3958 11.2784 90.9826 11.6887 92.3504 12.5095C93.7457 13.3302 94.8263 14.4656 95.5923 15.9155C96.3857 17.3655 96.7824 19.0069 96.7824 20.8399C96.7824 21.1135 96.7687 21.4144 96.7414 21.7427C96.714 22.0437 96.6593 22.3993 96.5772 22.8097H81.3121C81.442 23.5688 81.6744 24.2664 82.0092 24.9025C82.5564 25.9148 83.3361 26.7082 84.3483 27.2827C85.3605 27.8298 86.5232 28.1034 87.8364 28.1034C88.9307 28.1034 89.9293 27.9119 90.8321 27.5289C91.7623 27.1459 92.5556 26.5714 93.2122 25.8053L95.5923 28.2265C94.6622 29.3208 93.5131 30.1552 92.1453 30.7297C90.8047 31.3043 89.3684 31.5915 87.8364 31.5915ZM81.9682 17.8032C81.6615 18.3842 81.4453 19.0271 81.3196 19.7319H93.1828C93.0819 18.9251 92.8729 18.2138 92.5556 17.598C92.0905 16.6679 91.434 15.9566 90.5859 15.4641C89.7378 14.9443 88.7119 14.6844 87.5081 14.6844C86.2497 14.6844 85.1417 14.958 84.1842 15.5051C83.2266 16.0523 82.488 16.8183 81.9682 17.8032Z" fill="#2C2C2C"/>
<path d="M99.168 29.95C99.9887 30.4698 100.878 30.8802 101.835 31.1811C102.82 31.4547 103.86 31.5915 104.954 31.5915C107.143 31.5915 108.88 31.058 110.166 29.9911C111.479 28.9241 112.136 27.4742 112.136 25.6412C112.136 24.4375 111.876 23.4663 111.356 22.7276C110.863 21.9889 110.221 21.4007 109.427 20.963C108.634 20.5253 107.799 20.1833 106.924 19.9371C106.048 19.6635 105.2 19.4036 104.38 19.1574C103.586 18.9112 102.943 18.6103 102.451 18.2546C101.958 17.899 101.712 17.3928 101.712 16.7362C101.712 16.0797 101.986 15.5735 102.533 15.2179C103.107 14.8349 103.928 14.6434 104.995 14.6434C106.007 14.6434 106.91 14.8349 107.704 15.2179C108.524 15.6009 109.208 16.1481 109.755 16.8594L112.136 14.4792C111.37 13.4123 110.385 12.6189 109.181 12.0991C108.005 11.552 106.65 11.2784 105.118 11.2784C103.668 11.2784 102.424 11.5109 101.384 11.976C100.372 12.4411 99.5783 13.1113 99.0038 13.9868C98.4293 14.8349 98.1421 15.8471 98.1421 17.0235C98.1421 18.1999 98.3883 19.1437 98.8807 19.855C99.4005 20.5663 100.057 21.1272 100.85 21.5375C101.644 21.9479 102.478 22.2899 103.354 22.5634C104.257 22.8097 105.105 23.0696 105.898 23.3431C106.691 23.5894 107.334 23.9177 107.827 24.328C108.347 24.711 108.606 25.2582 108.606 25.9695C108.606 26.6808 108.292 27.2416 107.663 27.652C107.033 28.035 106.144 28.2265 104.995 28.2265C103.846 28.2265 102.807 28.0213 101.876 27.611C100.946 27.1732 100.125 26.5166 99.4142 25.6412L97.0341 28.0213C97.6359 28.76 98.3472 29.4029 99.168 29.95Z" fill="#2C2C2C"/>
<path d="M108.678 5.14381V5.87106H107.803V8.08367H106.972V5.87106H106.096V5.14381H108.678Z" fill="#2C2C2C"/>
<path d="M112.091 5.09973V8.09689H111.259V6.64239L110.651 7.32557H110.402L109.793 6.64239V8.09689H108.962V5.09973H109.255L110.526 6.37793L111.797 5.09973H112.091Z" fill="#2C2C2C"/>
<path d="M3.85179 9.92724C5.00191 13.6149 8.92374 15.6721 12.6114 14.5219C16.2991 13.3718 25.0334 7.36752 23.8833 3.67982C22.7332 -0.00788367 12.1342 0.0174711 8.44649 1.16759C4.75879 2.31771 2.70167 6.23954 3.85179 9.92724Z" fill="#2C2C2C"/>
<path d="M1.62337 30.1484C3.78786 32.3129 7.29682 32.3129 9.46131 30.1484C11.6258 27.9839 15.5446 20.5558 13.3805 18.3913C11.216 16.227 3.78786 20.1459 1.62337 22.3102C-0.541124 24.4747 -0.541124 27.9839 1.62337 30.1484Z" fill="#2C2C2C"/>
<path d="M22.3347 32.2765C26.066 33.2762 29.9013 31.062 30.9012 27.3307C31.9007 23.5993 31.497 13.0082 27.7656 12.0082C24.0343 11.0085 18.3889 19.9788 17.389 23.7101C16.3891 27.4413 18.6033 31.2766 22.3347 32.2765Z" fill="#2C2C2C"/>
</svg>
