<svg width="137" height="27" viewBox="0 0 137 27" fill="none" xmlns="http://www.w3.org/2000/svg">
<path d="M3.37449 3.09579C5.23983 1.33798 7.77271 0.311986 10.3399 0.184365C11.2185 0.184365 12.0997 0.189568 12.9783 0.181763C12.9334 1.11145 12.9783 2.04373 12.9519 2.97337C12.8279 5.05147 12.0495 7.08269 10.7383 8.71287C9.03386 10.9056 6.42712 12.3769 3.65945 12.7571C2.45107 12.9498 1.2242 12.8274 0.00790713 12.8613C0.0289955 11.8378 -0.0369508 10.8118 0.0448559 9.79099C0.282323 7.25979 1.49334 4.83534 3.37449 3.09579Z" fill="#2C2C2C"/>
<path d="M13.7914 0.181885C14.7334 0.192292 15.6753 0.176681 16.6198 0.187088C18.9706 0.351134 21.2898 1.24175 23.06 2.78603C25.0125 4.43964 26.3501 6.8042 26.6933 9.3302C26.8434 10.502 26.7487 11.6869 26.8068 12.864C25.9833 12.8614 25.163 12.8588 24.3396 12.864C22.3161 12.8093 20.3268 12.1635 18.6329 11.075C17.8519 10.5229 17.0499 9.96301 16.4642 9.19737C15.1793 7.78076 14.306 6.00213 13.9761 4.12715C13.7281 2.82506 13.8284 1.49699 13.7914 0.181885Z" fill="#2C2C2C"/>
<path d="M0.00956473 13.6088C0.84595 13.6556 1.68497 13.5697 2.51868 13.6608C6.08842 13.7363 9.55267 15.7155 11.4021 18.7285C12.4628 20.4159 13.0327 22.416 12.9588 24.4031C12.9562 25.0539 12.9667 25.7022 12.9483 26.3509C11.6238 26.3116 10.2861 26.4184 8.97484 26.1657C6.06205 25.6815 3.3841 23.9704 1.77201 21.5279C0.550444 19.7519 -0.0590183 17.5827 0.00429145 15.4395C0.00429145 14.8275 0.00429264 14.2181 0.00956473 13.6088Z" fill="#2C2C2C"/>
<path d="M22.3487 13.8845C23.7842 13.5694 25.264 13.6215 26.7232 13.6215L26.7866 13.684C26.7549 15.046 26.863 16.4236 26.586 17.7699C26.003 20.7907 23.9768 23.4888 21.2512 24.9705C19.5547 25.9027 17.6076 26.3609 15.6683 26.3402C15.0483 26.3428 14.4256 26.3296 13.8056 26.3481C13.8056 25.2205 13.7581 24.0876 13.8874 22.9653C14.1882 20.249 15.6762 17.7204 17.816 16.0121C19.1405 14.9809 20.6971 14.2335 22.3487 13.8845Z" fill="#2C2C2C"/>
<path d="M37.6176 21.3069C37.6176 21.7653 37.4568 22.1533 37.1355 22.4705C36.8317 22.7704 36.4475 22.9204 35.9833 22.9204C35.5365 22.9204 35.1612 22.7704 34.8578 22.4705C34.554 22.1533 34.4021 21.7653 34.4021 21.3069V4.96116C34.4021 4.50272 34.554 4.1236 34.8578 3.82387C35.1791 3.50649 35.5722 3.34778 36.0369 3.34778C36.5011 3.34778 36.8764 3.50649 37.1623 3.82387C37.4657 4.1236 37.6176 4.50272 37.6176 4.96116V21.3069Z" fill="#2C2C2C"/>
<path d="M50.5245 8.76978C50.9887 8.76978 51.3729 8.92844 51.6767 9.24586C51.9801 9.5456 52.132 9.92471 52.132 10.3832V17.1013C52.132 18.9704 51.6052 20.4515 50.5513 21.5448C49.4968 22.638 47.9787 23.1848 45.9954 23.1848C44.0125 23.1848 42.4939 22.638 41.4399 21.5448C40.4038 20.4515 39.8856 18.9704 39.8856 17.1013V10.3832C39.8856 9.92471 40.0375 9.5456 40.3413 9.24586C40.6451 8.92844 41.0289 8.76978 41.4935 8.76978C41.9582 8.76978 42.342 8.92844 42.6458 9.24586C42.9496 9.5456 43.1015 9.92471 43.1015 10.3832V17.1013C43.1015 18.1769 43.3428 18.9792 43.8249 19.5082C44.3074 20.0196 45.0308 20.2752 45.9954 20.2752C46.9783 20.2752 47.7106 20.0196 48.1931 19.5082C48.6752 18.9792 48.9165 18.1769 48.9165 17.1013V10.3832C48.9165 9.92471 49.0684 9.5456 49.3722 9.24586C49.6756 8.92844 50.0598 8.76978 50.5245 8.76978Z" fill="#2C2C2C"/>
<path d="M61.8038 8.50537C63.233 8.50537 64.287 8.84921 64.9661 9.53688C65.6448 10.207 66.0916 11.0798 66.3056 12.1554L65.8503 11.9173L66.0648 11.4941C66.2788 11.0886 66.6094 10.6566 67.0562 10.1981C67.5025 9.72205 68.0387 9.3253 68.6637 9.00792C69.3071 8.67286 70.0215 8.50537 70.8079 8.50537C72.0942 8.50537 73.0677 8.77869 73.7285 9.32529C74.4076 9.87189 74.8718 10.6037 75.122 11.5206C75.3722 12.4199 75.4973 13.425 75.4973 14.5358V21.3068C75.4973 21.7653 75.3454 22.1532 75.0416 22.4705C74.7378 22.7704 74.354 22.9203 73.8894 22.9203C73.4251 22.9203 73.0409 22.7704 72.7371 22.4705C72.4333 22.1532 72.2814 21.7653 72.2814 21.3068V14.5358C72.2814 13.9539 72.2103 13.4338 72.0674 12.9753C71.9244 12.4992 71.6653 12.1201 71.29 11.838C70.9151 11.5558 70.379 11.4148 69.6824 11.4148C69.0033 11.4148 68.4229 11.5558 67.9404 11.838C67.4579 12.1201 67.0919 12.4992 66.8417 12.9753C66.6094 13.4338 66.4932 13.9539 66.4932 14.5358V21.3068C66.4932 21.7653 66.3413 22.1532 66.038 22.4705C65.7342 22.7704 65.3499 22.9203 64.8857 22.9203C64.421 22.9203 64.0368 22.7704 63.7334 22.4705C63.4296 22.1532 63.2777 21.7653 63.2777 21.3068V14.5358C63.2777 13.9539 63.2062 13.4338 63.0633 12.9753C62.9203 12.4992 62.6611 12.1201 62.2863 11.838C61.911 11.5558 61.3749 11.4148 60.6783 11.4148C59.9996 11.4148 59.4188 11.5558 58.9363 11.838C58.4542 12.1201 58.0878 12.4992 57.8376 12.9753C57.6058 13.4338 57.4896 13.9539 57.4896 14.5358V21.3068C57.4896 21.7653 57.3377 22.1532 57.0339 22.4705C56.7301 22.7704 56.3463 22.9203 55.8816 22.9203C55.4169 22.9203 55.0332 22.7704 54.7293 22.4705C54.4255 22.1532 54.2736 21.7653 54.2736 21.3068V10.3833C54.2736 9.92481 54.4255 9.5457 54.7293 9.24596C55.0332 8.92854 55.4169 8.76987 55.8816 8.76987C56.3463 8.76987 56.7301 8.92854 57.0339 9.24596C57.3377 9.5457 57.4896 9.92481 57.4896 10.3833V11.5206L57.0875 11.4412C57.2483 11.1415 57.4717 10.8241 57.7572 10.4891C58.0432 10.1364 58.3917 9.8102 58.8027 9.51042C59.2133 9.21068 59.669 8.97264 60.169 8.79629C60.6694 8.60234 61.2145 8.50537 61.8038 8.50537Z" fill="#2C2C2C"/>
<path d="M80.6655 21.3069C80.6655 21.7653 80.5136 22.1533 80.2098 22.4705C79.9064 22.7704 79.5222 22.9204 79.0575 22.9204C78.5933 22.9204 78.2091 22.7704 77.9053 22.4705C77.6019 22.1533 77.45 21.7653 77.45 21.3069V10.3833C77.45 9.92484 77.6019 9.54573 77.9053 9.24599C78.2091 8.92857 78.5933 8.76991 79.0575 8.76991C79.5222 8.76991 79.9064 8.92857 80.2098 9.24599C80.5136 9.54573 80.6655 9.92484 80.6655 10.3833V21.3069ZM79.0307 7.05068C78.4235 7.05068 77.9946 6.95371 77.7444 6.75972C77.4947 6.56577 77.3696 6.22194 77.3696 5.72821V5.22567C77.3696 4.71434 77.5036 4.37046 77.7712 4.19416C78.0572 4.00021 78.4861 3.9032 79.0575 3.9032C79.683 3.9032 80.1209 4.00021 80.3706 4.19416C80.6208 4.3881 80.7459 4.73194 80.7459 5.22567V5.72821C80.7459 6.23958 80.6119 6.59224 80.3438 6.78618C80.0762 6.96253 79.6384 7.05068 79.0307 7.05068Z" fill="#2C2C2C"/>
<path d="M90.2949 8.50537C91.6169 8.50537 92.6173 8.77869 93.2959 9.32529C93.9929 9.87189 94.4661 10.6037 94.7163 11.5206C94.9843 12.4199 95.1184 13.425 95.1184 14.5358V21.3068C95.1184 21.7653 94.9665 22.1532 94.6627 22.4705C94.3588 22.7704 93.975 22.9203 93.5104 22.9203C93.0462 22.9203 92.6619 22.7704 92.3581 22.4705C92.0543 22.1532 91.9024 21.7653 91.9024 21.3068V14.5358C91.9024 13.9539 91.8224 13.4338 91.6616 12.9753C91.5186 12.4992 91.2505 12.1201 90.8574 11.838C90.4646 11.5558 89.9017 11.4148 89.1694 11.4148C88.4545 11.4148 87.8474 11.5558 87.347 11.838C86.8649 12.1201 86.4896 12.4992 86.2215 12.9753C85.9713 13.4338 85.8462 13.9539 85.8462 14.5358V21.3068C85.8462 21.7653 85.6947 22.1532 85.3909 22.4705C85.0871 22.7704 84.7029 22.9203 84.2387 22.9203C83.774 22.9203 83.3898 22.7704 83.0864 22.4705C82.7826 22.1532 82.6307 21.7653 82.6307 21.3068V10.3833C82.6307 9.92481 82.7826 9.5457 83.0864 9.24596C83.3898 8.92854 83.774 8.76987 84.2387 8.76987C84.7029 8.76987 85.0871 8.92854 85.3909 9.24596C85.6947 9.5457 85.8462 9.92481 85.8462 10.3833V11.5206L85.4445 11.4412C85.6054 11.1415 85.8373 10.8241 86.1411 10.4891C86.4449 10.1364 86.8023 9.8102 87.2129 9.51042C87.624 9.21068 88.0886 8.97264 88.6065 8.79629C89.1247 8.60234 89.6872 8.50537 90.2949 8.50537Z" fill="#2C2C2C"/>
<path d="M111.029 15.8583C111.029 17.3042 110.698 18.5826 110.037 19.6934C109.394 20.7867 108.518 21.6419 107.411 22.2588C106.321 22.8762 105.097 23.1849 103.74 23.1849C102.382 23.1849 101.149 22.8762 100.042 22.2588C98.9519 21.6419 98.0766 20.7867 97.4154 19.6934C96.7724 18.5826 96.4507 17.3042 96.4507 15.8583C96.4507 14.4124 96.7724 13.1428 97.4154 12.0496C98.0766 10.9387 98.9519 10.0747 100.042 9.45755C101.149 8.82275 102.382 8.50537 103.74 8.50537C105.097 8.50537 106.321 8.82275 107.411 9.45755C108.518 10.0747 109.394 10.9387 110.037 12.0496C110.698 13.1428 111.029 14.4124 111.029 15.8583ZM107.813 15.8583C107.813 14.959 107.625 14.1831 107.25 13.5307C106.893 12.8607 106.402 12.3405 105.776 11.9702C105.169 11.5999 104.49 11.4148 103.74 11.4148C102.989 11.4148 102.301 11.5999 101.676 11.9702C101.069 12.3405 100.577 12.8607 100.202 13.5307C99.845 14.1831 99.6663 14.959 99.6663 15.8583C99.6663 16.7399 99.845 17.5158 100.202 18.1858C100.577 18.8382 101.069 19.3496 101.676 19.7199C102.301 20.0902 102.989 20.2753 103.74 20.2753C104.49 20.2753 105.169 20.0902 105.776 19.7199C106.402 19.3496 106.893 18.8382 107.25 18.1858C107.625 17.5158 107.813 16.7399 107.813 15.8583Z" fill="#2C2C2C"/>
<path d="M123.013 8.76978C123.478 8.76978 123.862 8.92844 124.166 9.24586C124.469 9.5456 124.621 9.92471 124.621 10.3832V17.1013C124.621 18.9704 124.095 20.4515 123.04 21.5448C121.986 22.638 120.468 23.1848 118.485 23.1848C116.502 23.1848 114.983 22.638 113.929 21.5448C112.893 20.4515 112.375 18.9704 112.375 17.1013V10.3832C112.375 9.92471 112.527 9.5456 112.831 9.24586C113.134 8.92844 113.518 8.76978 113.983 8.76978C114.448 8.76978 114.831 8.92844 115.135 9.24586C115.439 9.5456 115.591 9.92471 115.591 10.3832V17.1013C115.591 18.1769 115.832 18.9792 116.314 19.5082C116.797 20.0196 117.52 20.2752 118.485 20.2752C119.467 20.2752 120.2 20.0196 120.682 19.5082C121.165 18.9792 121.406 18.1769 121.406 17.1013V10.3832C121.406 9.92471 121.558 9.5456 121.861 9.24586C122.165 8.92844 122.549 8.76978 123.013 8.76978Z" fill="#2C2C2C"/>
<path d="M125.932 20.725C125.754 20.4781 125.673 20.1607 125.691 19.7728C125.709 19.3849 125.941 19.0498 126.388 18.7677C126.674 18.5914 126.977 18.5208 127.299 18.5561C127.62 18.5738 127.933 18.7324 128.237 19.0322C128.755 19.5436 129.3 19.9403 129.872 20.2224C130.443 20.5045 131.158 20.6456 132.015 20.6456C132.283 20.628 132.578 20.5927 132.9 20.5398C133.221 20.4693 133.498 20.3282 133.73 20.1166C133.98 19.8874 134.105 19.5436 134.105 19.0851C134.105 18.6972 133.971 18.3886 133.703 18.1594C133.436 17.9301 133.078 17.7362 132.631 17.5775C132.203 17.4188 131.72 17.2689 131.185 17.1279C130.631 16.9691 130.059 16.7928 129.47 16.5989C128.898 16.4049 128.371 16.158 127.888 15.8583C127.406 15.5409 127.013 15.1265 126.709 14.6152C126.406 14.1038 126.254 13.4602 126.254 12.6844C126.254 11.8027 126.504 11.0533 127.004 10.4362C127.505 9.81902 128.148 9.34293 128.933 9.00792C129.738 8.67286 130.577 8.50537 131.452 8.50537C132.006 8.50537 132.587 8.57588 133.194 8.71695C133.802 8.84039 134.382 9.05197 134.936 9.35175C135.49 9.63385 135.955 10.013 136.33 10.4891C136.526 10.7536 136.642 11.0709 136.678 11.4412C136.714 11.8115 136.544 12.1465 136.169 12.4463C135.901 12.6579 135.588 12.7549 135.231 12.7372C134.874 12.702 134.579 12.5786 134.347 12.367C134.043 11.9791 133.632 11.6705 133.114 11.4412C132.614 11.212 132.033 11.0974 131.372 11.0974C131.104 11.0974 130.809 11.1327 130.488 11.2032C130.184 11.2561 129.916 11.3884 129.684 11.5999C129.452 11.7939 129.336 12.1113 129.336 12.5521C129.336 12.9577 129.47 13.2839 129.738 13.5307C130.006 13.76 130.363 13.9539 130.809 14.1126C131.274 14.2537 131.765 14.3948 132.283 14.5358C132.819 14.6769 133.364 14.8444 133.918 15.0383C134.472 15.2323 134.981 15.488 135.445 15.8054C135.91 16.1228 136.285 16.5372 136.571 17.0485C136.857 17.5422 137 18.177 137 18.9528C137 19.8521 136.732 20.6192 136.196 21.2539C135.66 21.8887 134.99 22.3735 134.186 22.7086C133.382 23.0262 132.56 23.1849 131.72 23.1849C130.667 23.1849 129.613 23.0085 128.559 22.6557C127.505 22.2853 126.629 21.6419 125.932 20.725Z" fill="#2C2C2C"/>
</svg>
