<svg width="157" height="32" viewBox="0 0 157 32" fill="none" xmlns="http://www.w3.org/2000/svg">
<path d="M19.1723 3.90714H8.21669V0.483521H19.1723C22.9539 0.483521 26.0195 3.54914 26.0195 7.33076V18.2864H22.5959V7.33076C22.5959 5.43995 21.0631 3.90714 19.1723 3.90714Z" fill="#2C2C2C"/>
<path d="M6.84724 23.0794H17.8028V26.503H6.84724C3.06561 26.503 -3.306e-07 23.4374 0 19.6558L7.07403e-07 8.70021H3.42362L3.42362 19.6558C3.42362 21.5466 4.95643 23.0794 6.84724 23.0794Z" fill="#2C2C2C"/>
<path fill-rule="evenodd" clip-rule="evenodd" d="M19.857 13.4933C19.857 17.2749 16.7914 20.3405 13.0098 20.3405C9.22814 20.3405 6.16252 17.2749 6.16252 13.4933C6.16252 9.71165 9.22814 6.64604 13.0098 6.64604C16.7914 6.64604 19.857 9.71165 19.857 13.4933ZM16.4334 13.4933C16.4334 15.3841 14.9006 16.9169 13.0098 16.9169C11.1189 16.9169 9.58614 15.3841 9.58614 13.4933C9.58614 11.6025 11.1189 10.0697 13.0098 10.0697C14.9006 10.0697 16.4334 11.6025 16.4334 13.4933Z" fill="#2C2C2C"/>
<path d="M40.6294 24.3227C39.3326 24.3227 38.1655 24.1004 37.1281 23.6557C36.0906 23.1926 35.2755 22.5442 34.6827 21.7106C34.0899 20.8769 33.7935 19.9043 33.7935 18.7928H37.1836C37.2577 19.6264 37.5819 20.3119 38.1562 20.8491C38.749 21.3864 39.5734 21.655 40.6294 21.655C41.7224 21.655 42.5746 21.3956 43.1859 20.8769C43.7972 20.3397 44.1029 19.6542 44.1029 18.8206C44.1029 18.1722 43.9084 17.6442 43.5194 17.2367C43.1488 16.8291 42.6764 16.5142 42.1022 16.2919C41.5464 16.0695 40.7683 15.8287 39.7679 15.5694C38.5082 15.2359 37.48 14.9024 36.6834 14.569C35.9054 14.217 35.2384 13.6798 34.6827 12.9573C34.1269 12.2348 33.849 11.2714 33.849 10.0673C33.849 8.95574 34.1269 7.98316 34.6827 7.14951C35.2384 6.31586 36.0165 5.67673 37.0169 5.23212C38.0173 4.7875 39.1751 4.5652 40.4904 4.5652C42.3615 4.5652 43.8899 5.0376 45.0755 5.9824C46.2797 6.90868 46.9466 8.18694 47.0763 9.81718H43.5749C43.5194 9.11321 43.1859 8.51113 42.5746 8.01094C41.9632 7.51075 41.1574 7.26066 40.157 7.26066C39.2492 7.26066 38.5082 7.49223 37.9339 7.95537C37.3596 8.41851 37.0725 9.08542 37.0725 9.95612C37.0725 10.5489 37.2485 11.0399 37.6005 11.4289C37.971 11.7994 38.4341 12.0958 38.9899 12.3181C39.5456 12.5404 40.3052 12.7813 41.2685 13.0406C42.5468 13.3926 43.5842 13.7446 44.3808 14.0966C45.1959 14.4486 45.8814 14.9951 46.4371 15.7361C47.0114 16.4586 47.2986 17.4312 47.2986 18.6539C47.2986 19.6357 47.0299 20.562 46.4927 21.4327C45.974 22.3034 45.2052 23.0074 44.1863 23.5446C43.1859 24.0633 42.0003 24.3227 40.6294 24.3227Z" fill="#2C2C2C"/>
<path d="M57.3722 8.56671C58.5764 8.56671 59.6509 8.8168 60.5957 9.31699C61.559 9.81718 62.3093 10.5582 62.8465 11.5401C63.3838 12.5219 63.6524 13.7075 63.6524 15.097V24.1281H60.5123V15.5694C60.5123 14.1985 60.1696 13.1518 59.4842 12.4293C58.7987 11.6883 57.8632 11.3177 56.6775 11.3177C55.4919 11.3177 54.5471 11.6883 53.8431 12.4293C53.1577 13.1518 52.815 14.1985 52.815 15.5694V24.1281H49.6471V8.8168H52.815V10.5675C53.3337 9.9376 53.9913 9.44667 54.7879 9.09469C55.6031 8.7427 56.4645 8.56671 57.3722 8.56671Z" fill="#2C2C2C"/>
<path d="M65.2478 16.403C65.2478 14.8654 65.5628 13.5038 66.1926 12.3181C66.841 11.1325 67.7117 10.2155 68.8047 9.56709C69.9163 8.90017 71.139 8.56671 72.4728 8.56671C73.677 8.56671 74.7236 8.80754 75.6129 9.2892C76.5206 9.75234 77.2431 10.3359 77.7804 11.0399V8.8168H80.976V24.1281H77.7804V21.8495C77.2431 22.572 76.5114 23.1741 75.5851 23.6557C74.6588 24.1374 73.6028 24.3782 72.4172 24.3782C71.1019 24.3782 69.8977 24.0448 68.8047 23.3779C67.7117 22.6924 66.841 21.7476 66.1926 20.5435C65.5628 19.3208 65.2478 17.9406 65.2478 16.403ZM77.7804 16.4586C77.7804 15.4026 77.5581 14.4856 77.1134 13.7075C76.6874 12.9295 76.1223 12.3367 75.4184 11.9291C74.7144 11.5215 73.9548 11.3177 73.1397 11.3177C72.3246 11.3177 71.565 11.5215 70.8611 11.9291C70.1571 12.3181 69.5828 12.9017 69.1382 13.6798C68.7121 14.4393 68.4991 15.347 68.4991 16.403C68.4991 17.459 68.7121 18.3852 69.1382 19.1818C69.5828 19.9784 70.1571 20.5898 70.8611 21.0159C71.5836 21.4234 72.3431 21.6272 73.1397 21.6272C73.9548 21.6272 74.7144 21.4234 75.4184 21.0159C76.1223 20.6083 76.6874 20.0155 77.1134 19.2374C77.5581 18.4408 77.7804 17.5145 77.7804 16.4586Z" fill="#2C2C2C"/>
<path d="M86.9153 11.0677C87.4526 10.3637 88.1843 9.77087 89.1106 9.2892C90.0369 8.80754 91.0836 8.56671 92.2507 8.56671C93.5845 8.56671 94.7979 8.90017 95.8909 9.56709C97.0025 10.2155 97.8732 11.1325 98.503 12.3181C99.1329 13.5038 99.4478 14.8654 99.4478 16.403C99.4478 17.9406 99.1329 19.3208 98.503 20.5435C97.8732 21.7476 97.0025 22.6924 95.8909 23.3779C94.7979 24.0448 93.5845 24.3782 92.2507 24.3782C91.0836 24.3782 90.0461 24.1467 89.1384 23.6835C88.2306 23.2019 87.4896 22.6091 86.9153 21.9051V31.4087H83.7475V8.8168H86.9153V11.0677ZM96.2244 16.403C96.2244 15.347 96.0021 14.4393 95.5575 13.6798C95.1314 12.9017 94.5571 12.3181 93.8346 11.9291C93.1306 11.5215 92.3711 11.3177 91.556 11.3177C90.7594 11.3177 89.9998 11.5215 89.2773 11.9291C88.5734 12.3367 87.9991 12.9295 87.5545 13.7075C87.1284 14.4856 86.9153 15.4026 86.9153 16.4586C86.9153 17.5145 87.1284 18.4408 87.5545 19.2374C87.9991 20.0155 88.5734 20.6083 89.2773 21.0159C89.9998 21.4234 90.7594 21.6272 91.556 21.6272C92.3711 21.6272 93.1306 21.4234 93.8346 21.0159C94.5571 20.5898 95.1314 19.9784 95.5575 19.1818C96.0021 18.3852 96.2244 17.459 96.2244 16.403Z" fill="#2C2C2C"/>
<path d="M107.555 24.3227C106.258 24.3227 105.091 24.1004 104.053 23.6557C103.016 23.1926 102.201 22.5442 101.608 21.7106C101.015 20.8769 100.719 19.9043 100.719 18.7928H104.109C104.183 19.6264 104.507 20.3119 105.081 20.8491C105.674 21.3864 106.499 21.655 107.555 21.655C108.648 21.655 109.5 21.3956 110.111 20.8769C110.723 20.3397 111.028 19.6542 111.028 18.8206C111.028 18.1722 110.834 17.6442 110.445 17.2367C110.074 16.8291 109.602 16.5142 109.027 16.2919C108.472 16.0695 107.694 15.8287 106.693 15.5694C105.433 15.2359 104.405 14.9024 103.609 14.569C102.831 14.217 102.164 13.6798 101.608 12.9573C101.052 12.2348 100.774 11.2714 100.774 10.0673C100.774 8.95574 101.052 7.98316 101.608 7.14951C102.164 6.31586 102.942 5.67673 103.942 5.23212C104.943 4.7875 106.1 4.5652 107.416 4.5652C109.287 4.5652 110.815 5.0376 112.001 5.9824C113.205 6.90868 113.872 8.18694 114.002 9.81718H110.5C110.445 9.11321 110.111 8.51113 109.5 8.01094C108.888 7.51075 108.083 7.26066 107.082 7.26066C106.174 7.26066 105.433 7.49223 104.859 7.95537C104.285 8.41851 103.998 9.08542 103.998 9.95612C103.998 10.5489 104.174 11.0399 104.526 11.4289C104.896 11.7994 105.359 12.0958 105.915 12.3181C106.471 12.5404 107.23 12.7813 108.194 13.0406C109.472 13.3926 110.509 13.7446 111.306 14.0966C112.121 14.4486 112.807 14.9951 113.362 15.7361C113.937 16.4586 114.224 17.4312 114.224 18.6539C114.224 19.6357 113.955 20.562 113.418 21.4327C112.899 22.3034 112.13 23.0074 111.112 23.5446C110.111 24.0633 108.926 24.3227 107.555 24.3227Z" fill="#2C2C2C"/>
<path d="M124.492 8.56671C125.659 8.56671 126.697 8.8168 127.604 9.31699C128.531 9.81718 129.253 10.5582 129.772 11.5401C130.309 12.5219 130.578 13.7075 130.578 15.097V24.1281H127.438V15.5694C127.438 14.1985 127.095 13.1518 126.409 12.4293C125.724 11.6883 124.788 11.3177 123.603 11.3177C122.417 11.3177 121.472 11.6883 120.768 12.4293C120.083 13.1518 119.74 14.1985 119.74 15.5694V24.1281H116.572V3.56482H119.74V10.5953C120.277 9.94686 120.954 9.44667 121.769 9.09469C122.602 8.7427 123.51 8.56671 124.492 8.56671Z" fill="#2C2C2C"/>
<path d="M139.87 24.3782C138.425 24.3782 137.119 24.054 135.952 23.4057C134.785 22.7387 133.868 21.8125 133.201 20.6268C132.534 19.4227 132.201 18.0333 132.201 16.4586C132.201 14.9024 132.544 13.5223 133.229 12.3181C133.914 11.114 134.85 10.1877 136.036 9.5393C137.221 8.89091 138.546 8.56671 140.009 8.56671C141.473 8.56671 142.797 8.89091 143.983 9.5393C145.169 10.1877 146.104 11.114 146.79 12.3181C147.475 13.5223 147.818 14.9024 147.818 16.4586C147.818 18.0147 147.466 19.3949 146.762 20.599C146.058 21.8032 145.095 22.7387 143.872 23.4057C142.668 24.054 141.334 24.3782 139.87 24.3782ZM139.87 21.6272C140.686 21.6272 141.445 21.4327 142.149 21.0436C142.872 20.6546 143.455 20.0711 143.9 19.293C144.344 18.5149 144.567 17.5701 144.567 16.4586C144.567 15.3471 144.354 14.4115 143.928 13.652C143.501 12.8739 142.936 12.2903 142.232 11.9013C141.528 11.5123 140.769 11.3177 139.954 11.3177C139.139 11.3177 138.379 11.5123 137.675 11.9013C136.99 12.2903 136.443 12.8739 136.036 13.652C135.628 14.4115 135.424 15.3471 135.424 16.4586C135.424 18.1074 135.841 19.3856 136.675 20.2934C137.527 21.1826 138.592 21.6272 139.87 21.6272Z" fill="#2C2C2C"/>
<path d="M153.256 11.4011V19.8765C153.256 20.4508 153.386 20.8677 153.645 21.127C153.923 21.3678 154.386 21.4883 155.034 21.4883H156.98V24.1281H154.479C153.052 24.1281 151.959 23.7947 151.2 23.1278C150.44 22.4608 150.06 21.3771 150.06 19.8765V11.4011H148.254V8.8168H150.06V5.00981H153.256V8.8168H156.98V11.4011H153.256Z" fill="#2C2C2C"/>
</svg>
