<svg width="118" height="31" viewBox="0 0 118 31" fill="none" xmlns="http://www.w3.org/2000/svg">
<path d="M62.514 15.1018C61.7763 15.8097 61.4077 16.8412 61.4077 18.1963V26.6604H56.4898V10.0354H60.3934V15.5217C60.5801 13.9557 61.0517 12.6932 61.8073 11.7343C62.8316 10.4601 64.3071 9.823 66.2331 9.823H66.8788V14.0096H65.6494C64.297 14.0096 63.2518 14.3737 62.514 15.1018Z" fill="#2C2C2C"/>
<path fill-rule="evenodd" clip-rule="evenodd" d="M77.4213 24.6279C77.6325 24.2744 77.8065 23.8843 77.944 23.4576V26.6603H81.8476V16.4669C81.8476 14.9298 81.54 13.6758 80.9253 12.705C80.3106 11.7139 79.4089 10.9757 78.2205 10.4903C77.0527 10.0049 75.6078 9.76221 73.8868 9.76221C73.2921 9.76221 72.657 9.77232 71.9808 9.79252C71.3046 9.81276 70.6489 9.84311 70.0137 9.88355C69.3785 9.92398 68.8253 9.96446 68.3537 10.0049V14.1005C68.9889 14.0601 69.6961 14.0196 70.4748 13.9792C71.2535 13.9387 72.0117 13.9084 72.7494 13.8882C73.4872 13.8679 74.0813 13.8578 74.532 13.8578C75.4337 13.8578 76.0894 14.0702 76.4991 14.4949C76.9092 14.9197 77.1138 15.5568 77.1138 16.4062V16.4669H74.0709C72.5749 16.4669 71.2535 16.659 70.1057 17.0433C68.9584 17.4074 68.0671 17.9838 67.4319 18.7726C66.7967 19.5411 66.4791 20.5321 66.4791 21.7456C66.4791 22.8582 66.7352 23.8188 67.2474 24.6279C67.7595 25.4168 68.4667 26.0235 69.368 26.448C70.2903 26.8726 71.356 27.0853 72.5649 27.0853C73.7328 27.0853 74.7165 26.8726 75.5157 26.448C76.3355 26.0235 76.9707 25.4168 77.4213 24.6279ZM76.6221 22.4435C76.9092 21.9781 77.0732 21.3311 77.1138 20.5018V19.167H74.0403C73.1796 19.167 72.5134 19.3793 72.0423 19.8041C71.5916 20.2086 71.3661 20.7648 71.3661 21.4726C71.3661 22.14 71.5916 22.686 72.0423 23.111C72.5134 23.5153 73.1796 23.7177 74.0403 23.7177C74.5935 23.7177 75.0852 23.6268 75.5157 23.4447C75.9664 23.2423 76.3355 22.9086 76.6221 22.4435Z" fill="#2C2C2C"/>
<path d="M92.0452 27.2368C90.5903 27.2368 89.3199 27.0043 88.2336 26.5388C87.1683 26.0535 86.2766 25.4064 85.5594 24.5973C84.8422 23.7882 84.3095 22.8784 83.9614 21.8669C83.6128 20.8355 83.4387 19.7736 83.4387 18.6815V18.1051C83.4387 16.9724 83.6233 15.8904 83.9919 14.8589C84.361 13.8072 84.9037 12.8768 85.6209 12.0678C86.3381 11.2588 87.2298 10.6217 88.2951 10.1565C89.381 9.69134 90.6208 9.45874 92.0142 9.45874C93.5306 9.45874 94.873 9.75202 96.0409 10.3386C97.2087 10.9048 98.1414 11.7038 98.8381 12.7352C99.5348 13.7667 99.924 14.9499 100.006 16.2848H95.1801C95.0981 15.5364 94.791 14.9095 94.2583 14.4038C93.7457 13.878 92.998 13.6151 92.0142 13.6151C91.1945 13.6151 90.5083 13.8173 89.9551 14.2218C89.422 14.6263 89.0224 15.1825 88.7563 15.8904C88.4897 16.5983 88.3566 17.4376 88.3566 18.4084C88.3566 19.2983 88.4797 20.1074 88.7253 20.8355C88.9713 21.5434 89.3609 22.0994 89.8936 22.5042C90.4468 22.8883 91.164 23.0803 92.0452 23.0803C92.7009 23.0803 93.2541 22.9692 93.7047 22.7466C94.1763 22.5042 94.545 22.1804 94.8115 21.7761C95.0981 21.3512 95.2726 20.8658 95.3341 20.3197H100.129C100.068 21.6951 99.6779 22.9085 98.9607 23.9604C98.2435 24.9917 97.2907 25.8008 96.1024 26.3873C94.914 26.9535 93.5616 27.2368 92.0452 27.2368Z" fill="#2C2C2C"/>
<path fill-rule="evenodd" clip-rule="evenodd" d="M105.641 26.5087C106.748 26.994 108.018 27.2368 109.452 27.2368C110.866 27.2368 112.116 26.994 113.202 26.5087C114.288 26.0234 115.19 25.3457 115.907 24.4759C116.624 23.6065 117.106 22.6153 117.352 21.5029H112.833C112.629 22.0086 112.239 22.4331 111.665 22.7772C111.092 23.1208 110.354 23.293 109.452 23.293C108.469 23.293 107.67 23.0907 107.055 22.6859C106.44 22.2816 105.989 21.7153 105.703 20.9872C105.543 20.5698 105.427 20.1147 105.356 19.6219H117.659V17.9837C117.659 16.4668 117.332 15.0713 116.675 13.7971C116.02 12.5027 115.067 11.461 113.817 10.6723C112.588 9.86324 111.071 9.45874 109.268 9.45874C107.895 9.45874 106.665 9.70147 105.58 10.1869C104.514 10.652 103.623 11.2891 102.905 12.0981C102.188 12.9072 101.635 13.8274 101.245 14.8589C100.877 15.8702 100.692 16.932 100.692 18.0444V18.6511C100.692 19.7231 100.877 20.7748 101.245 21.8062C101.635 22.8177 102.188 23.7378 102.905 24.5671C103.643 25.3762 104.555 26.0234 105.641 26.5087ZM105.394 16.8612C105.471 16.4262 105.584 16.0318 105.733 15.678C106.041 14.9297 106.491 14.3634 107.086 13.9791C107.68 13.5948 108.407 13.4027 109.268 13.4027C110.108 13.4027 110.805 13.5948 111.358 13.9791C111.932 14.3431 112.362 14.8791 112.649 15.587C112.804 15.9703 112.917 16.395 112.989 16.8612H105.394Z" fill="#2C2C2C"/>
<path d="M44.7804 26.6604V8.85213H38.4791V4.51379H56.1527V8.85213H49.8209V26.6604H44.7804Z" fill="#2C2C2C"/>
<path fill-rule="evenodd" clip-rule="evenodd" d="M23.2515 10.3279C23.6651 9.04257 22.43 7.83537 21.1318 8.25579L12.289 11.1197C11.7772 11.2854 11.3773 11.684 11.2142 12.1908L8.47424 20.7097C8.06085 21.9952 9.2958 23.2021 10.594 22.7819L19.4368 19.918C19.9486 19.7522 20.3485 19.3536 20.5116 18.8468L23.2515 10.3279ZM15.8613 17.5072C16.9739 17.5072 17.8759 16.6169 17.8759 15.5187C17.8759 14.4206 16.9739 13.5303 15.8613 13.5303C14.7487 13.5303 13.8467 14.4206 13.8467 15.5187C13.8467 16.6169 14.7487 17.5072 15.8613 17.5072Z" fill="#2C2C2C"/>
<path fill-rule="evenodd" clip-rule="evenodd" d="M15.5125 2.99162C8.5029 2.99162 2.82044 8.60024 2.82044 15.5188C2.82044 22.4375 8.5029 28.0463 15.5125 28.0463C22.5223 28.0463 28.2045 22.4375 28.2045 15.5188C28.2045 8.60024 22.5223 2.99162 15.5125 2.99162ZM0 15.5188C0 7.06277 6.94521 0.207764 15.5125 0.207764C24.0797 0.207764 31.0249 7.06277 31.0249 15.5188C31.0249 23.9751 24.0797 30.8301 15.5125 30.8301C6.94521 30.8301 0 23.9751 0 15.5188Z" fill="#2C2C2C"/>
</svg>
